<?xml version="1.0" encoding="utf-8"?>
<!-- Generator: Adobe Illustrator 21.0.0, SVG Export Plug-In . SVG Version: 6.00 Build 0)  -->
<svg version="1.1" id="Isolation_Mode" xmlns="http://www.w3.org/2000/svg" xmlns:xlink="http://www.w3.org/1999/xlink" x="0px"
	 y="0px" viewBox="0 0 211 114" style="enable-background:new 0 0 211 114;" xml:space="preserve">
<style type="text/css">
	.st0{fill:url(#SVGID_1_);}
</style>
<g>
	
		<linearGradient id="SVGID_1_" gradientUnits="userSpaceOnUse" x1="-86.8694" y1="208.0746" x2="190.438" y2="-16.4805" gradientTransform="matrix(1 0 0 -1 0 140)">
		<stop  offset="0" style="stop-color:#000C54"/>
		<stop  offset="0.1267" style="stop-color:#0D115A"/>
		<stop  offset="0.3637" style="stop-color:#311E6B"/>
		<stop  offset="0.6823" style="stop-color:#6A3285"/>
		<stop  offset="1" style="stop-color:#A949A3"/>
	</linearGradient>
	<path class="st0" d="M235.8-70.3c0-3.4-0.6-6.7-1.7-9.7h-52.8h-262h-21.9v99.3l-0.4,101v70.4c2,0.5,4.1,0.8,6.2,0.8
		c13.4,0,24.2-10.8,24.2-24.2c0-5.3-1.7-10.3-4.6-14.3c0.9,0.2,1.8,0.3,2.7,0.3c7.6,0,13.8-6.2,13.8-13.8c0-2-0.4-3.9-1.2-5.6
		c0.6,0.1,1.2,0.1,1.8,0.1c4.8,0,8.9-2.4,11.4-6.1c3.2,3.5,7.8,5.7,13,5.7c9.7,0,17.6-7.9,17.7-17.6c5.6-0.8,10.4-4.1,13-8.9
		c4.2,3.7,9.8,5.9,15.8,5.9c9.1,0,17-5,21.2-12.4c3.2,3.6,7.9,5.9,13.2,5.9c3.3,0,6.4-0.9,9.1-2.5c2.4,4.2,6.9,7.1,12,7.1
		c4.9,0,9.2-2.6,11.6-6.4c2.4,3.8,6.7,6.4,11.6,6.4c7.6,0,13.8-6.2,13.8-13.8c0-1.7-0.3-3.3-0.9-4.8c5.4-1.8,9.3-6.9,9.4-13
		c2,1.2,4.4,1.9,7,1.9c4.7,0,8.8-2.3,11.3-5.9c3.2,4.8,8.6,8,14.8,8c9.8,0,17.7-7.9,17.7-17.7c0-2.7-0.6-5.2-1.7-7.5
		c7.6-0.8,13.8-6.4,15.5-13.7c3,2.3,6.7,3.7,10.8,3.7c9.8,0,17.7-7.9,17.7-17.7c0-3.7-1.1-7.1-3-9.9c4.1-2.3,7-6.7,7-11.7
		c0-6.5-4.6-11.8-10.7-13.1c0.1-0.7,0.2-1.4,0.2-2.1c0-3.6-1.4-6.8-3.7-9.2c2.3-2.4,3.7-5.6,3.7-9.2c0-0.5,0-0.9-0.1-1.4
		c2,1,4.2,1.6,6.6,1.6c1.9,0,3.8-0.4,5.5-1.1c1.4,1.1,3.2,1.8,5.1,1.8c4.5,0,8.1-3.6,8.1-8.1c0-3.1-1.7-5.7-4.2-7.1
		c0-1.9-0.4-3.8-1.1-5.5C228.5-48.4,235.8-58.5,235.8-70.3z"/>
</g>
</svg>
