<?xml version="1.0" encoding="utf-8"?>
<!-- Generator: Adobe Illustrator 21.0.0, SVG Export Plug-In . SVG Version: 6.00 Build 0)  -->
<svg version="1.1" id="Isolation_Mode" xmlns="http://www.w3.org/2000/svg" xmlns:xlink="http://www.w3.org/1999/xlink" x="0px"
	 y="0px" viewBox="0 0 158 103" style="enable-background:new 0 0 158 103;" xml:space="preserve">
<style type="text/css">
	.st0{fill:url(#SVGID_1_);}
</style>
<linearGradient id="SVGID_1_" gradientUnits="userSpaceOnUse" x1="-137.1499" y1="125.714" x2="82.8464" y2="3.9672" gradientTransform="matrix(1 0 0 -1 0 60)">
	<stop  offset="0" style="stop-color:#60308B"/>
	<stop  offset="1" style="stop-color:#A949A3"/>
</linearGradient>
<path class="st0" d="M153.4-22.2c0-8.3-4.9-15.4-11.9-18.7c1.2-2.6,1.9-5.6,1.9-8.7c0-2.6-0.5-5.1-1.4-7.4H-83V79
	c-0.1,0-0.3,0.1-0.4,0.1v30.7c1.5,0.5,3.2,0.7,4.9,0.7c8.9,0,16.1-7.2,16.1-16.1c0-2.1-0.4-4.1-1.2-6c1.4,0.3,2.9,0.5,4.4,0.5
	c8.4,0,15.6-5,18.9-12.2c5.2,4.7,12.1,7.5,19.7,7.5c5.9,0,11.4-1.7,16-4.7c0.5,8.5,7.5,15.2,16.1,15.2c4.5,0,8.5-1.8,11.5-4.8
	c3.6,6.2,10.3,10.3,17.9,10.3c11.5,0,20.8-9.3,20.8-20.8c0-4.2-1.2-8-3.4-11.3c6.4-2.8,11.1-8.7,12.2-15.9c2.6,1.2,5.6,1.9,8.6,1.9
	c11.5,0,20.8-9.3,20.8-20.8c0-0.8-0.1-1.5-0.1-2.3c3.5,1.5,7.4,2.3,11.4,2.3c16.3,0,29.5-13.2,29.5-29.5c0-2.4-0.3-4.7-0.8-6.9
	C147.7-5.7,153.4-13.3,153.4-22.2z"/>
</svg>
