<?xml version="1.0" encoding="utf-8"?>
<!-- Generator: Adobe Illustrator 16.0.0, SVG Export Plug-In . SVG Version: 6.00 Build 0)  -->
<!DOCTYPE svg PUBLIC "-//W3C//DTD SVG 1.1//EN" "http://www.w3.org/Graphics/SVG/1.1/DTD/svg11.dtd">
<svg version="1.1" id="레이어_1" xmlns="http://www.w3.org/2000/svg" xmlns:xlink="http://www.w3.org/1999/xlink" x="0px"
	 y="0px" width="228.5px" height="267.66px" viewBox="0 0 228.5 267.66" enable-background="new 0 0 228.5 267.66"
	 xml:space="preserve">
<g>
	<path fill="#E3E7E8" d="M134.039,197.718c0,0,7.241,35.251,6.621,36.686c0,0-0.777,0.44-2.824,0c0,0-6.047-34.806-7.922-36.686
		C129.914,197.718,133.396,197.911,134.039,197.718z"/>
	<g>
		<path fill="#ED5B21" d="M87.387,144.213c0,0-2.58-5.009,0.911-10.066l53.991,1.441c0,0,2.25,6,0,8.625
			C142.289,144.213,93.985,141.588,87.387,144.213z"/>
		<g>
			<g>
				<path fill="#828E8C" d="M151.89,80.65c0,2.657-3.368,4.812-7.521,4.812H85.981c-4.153,0-7.521-2.154-7.521-4.812V52.733
					c0-2.657,3.368-4.812,7.521-4.812h58.388c4.152,0,7.521,2.154,7.521,4.812V80.65z"/>
				<path fill="#6B7883" d="M147.652,79.039c0,2.351-2.979,4.256-6.652,4.256H89.352c-3.674,0-6.653-1.906-6.653-4.256V54.344
					c0-2.351,2.979-4.256,6.653-4.256H141c3.673,0,6.652,1.906,6.652,4.256V79.039z"/>
				<g>
					<g>
						<path fill="#EE7A5B" d="M67.028,83.269c-0.347,0-0.684-0.18-0.868-0.502c-0.301-0.523-7.326-12.934-4.334-22.444
							c1.141-3.627,3.589-6.347,7.275-8.083c0.131-0.062,0.273-0.094,0.417-0.095c0.531-0.008,13.093-0.432,14.386-20.066
							c0.037-0.55,0.506-0.967,1.064-0.932c0.551,0.037,0.968,0.513,0.932,1.064c-1.318,20.008-14.165,21.77-16.117,21.92
							c-3.065,1.491-5.1,3.775-6.049,6.792c-2.731,8.683,4.091,20.728,4.161,20.849c0.275,0.479,0.109,1.09-0.37,1.365
							C67.368,83.226,67.197,83.269,67.028,83.269z"/>
					</g>
					<g>
						<g>
							<path fill="#E7552B" d="M43.668,128.635c0.172,0.144,0.271,0.222,0.271,0.222c2.079,1.183,4-1.062,4-1.062
								C46.426,128.895,44.993,129.057,43.668,128.635z"/>
							<path fill="#E7552B" d="M36.939,112.606c-0.323,0.489-0.561,0.989-0.737,1.495c0.238-0.503,0.485-0.998,0.742-1.485
								C36.944,112.614,36.939,112.606,36.939,112.606z"/>
							<path fill="#E7552B" d="M36.945,112.616c-0.257,0.487-0.504,0.982-0.742,1.485c-2.126,6.124,5.88,13.208,7.466,14.534
								c1.325,0.422,2.758,0.26,4.271-0.84C44.795,126.968,37.057,112.821,36.945,112.616z"/>
							<path fill="#F15A25" d="M63.73,86.934L63.73,86.934c0,0-2.457,1.028-2.624,3.028C61.106,89.347,62.826,87.737,63.73,86.934z"
								/>
							<polygon fill="#F15A25" points="78.462,107.853 78.462,107.852 78.461,107.853 							"/>
							<polygon fill="#F15A25" points="75.31,110.345 75.311,110.344 75.31,110.344 							"/>
							<path fill="#808D88" d="M35.106,116.628c0,0-24.167-5.833-8.833,6c0,0-12.167,5-11.5,8.167c0,0,3.833,24.145,28.5-1.594
								C43.272,129.201,40.106,123.794,35.106,116.628z"/>
							<path fill="none" d="M66.084,87.899c-1.37,1.963-1.145,4.396-1.145,4.396c-0.006,0.091-0.022,0.176-0.03,0.266
								c2.58,2.174,5.949,5.864,8.395,11.618c0.664-0.943,1.827-2.178,3.063-3.436C74.557,96.17,71.375,90.604,66.084,87.899z"/>
							<path fill="#FBFBFB" d="M64.866,92.526c-2.163-1.813-3.76-2.565-3.76-2.565s-16.255,7.642-24.161,22.655
								c0.031,0.057,0.64,1.168,1.567,2.762C42.658,114.395,63.104,108.73,64.866,92.526z"/>
							<path fill="#FBFBFB" d="M37.772,115.544c0,0,0.273-0.05,0.748-0.153c-0.003-0.004-0.005-0.008-0.008-0.013
								C38.043,115.49,37.772,115.544,37.772,115.544z"/>
							<path fill="#FBFBFB" d="M64.909,92.561c-0.015-0.012-0.028-0.022-0.042-0.034c-1.762,16.204-22.208,21.869-26.354,22.852
								c0.002,0.005,0.005,0.009,0.008,0.013C42.721,114.478,63.51,109.129,64.909,92.561z"/>
							<path fill="#F0F2F3" d="M64.927,92.046c-0.014,0.164-0.043,0.318-0.061,0.48c0.015,0.012,0.028,0.022,0.042,0.034
								c-1.399,16.569-22.188,21.917-26.389,22.831c1.595,2.74,4.133,6.904,6.342,9.649c0.121-0.07,24.042-13.938,28.244-20.58
								c0.056-0.089,0.13-0.188,0.197-0.283C70.858,98.424,67.507,94.22,64.927,92.046z"/>
							<path fill="#DFD5DD" d="M44.862,125.041c1.188,1.477,2.28,2.544,3.077,2.754c0,0,16.769-9.455,27.371-17.451
								c-0.536-2.28-1.225-4.326-2.007-6.166c-0.067,0.095-0.141,0.194-0.197,0.283C68.904,111.104,44.983,124.971,44.862,125.041z"
								/>
							<path fill="#DFD5DD" d="M76.366,100.743c1.55,3.918,2.095,7.102,2.097,7.109c0.995-0.833,1.889-1.636,2.644-2.391
								c0,0,0.999-6.724,2.147-14.875c-1.036,1.785-2.113,3.656-2.231,4.875C80.949,96.223,78.56,98.509,76.366,100.743z"/>
							<path fill="#FBFBFB" d="M64.272,86.461c0,0-0.221,0.186-0.542,0.472c0.829,0.256,1.275,1.133,2.019,1.514
								c0.116-0.167,0.25-0.339,0.399-0.512c-0.021-0.011-0.042-0.024-0.064-0.036c0.924-1.325,2.567-2.438,5.522-2.438
								c0,0,10.914-4.822,13.838-9.202c0.415-4.144,0.749-7.875,0.995-10.465C86.439,65.795,66.106,79.795,64.272,86.461z"/>
							<path fill="#FBFBFB" d="M71.606,85.461c-2.955,0-4.598,1.113-5.522,2.438c0.022,0.011,0.042,0.024,0.064,0.036
								C67.187,86.731,69.023,85.461,71.606,85.461z"/>
							<path fill="#F0F2F3" d="M71.606,85.461c-2.583,0-4.419,1.27-5.458,2.474c5.252,2.717,8.417,8.254,10.218,12.808
								c2.194-2.234,4.583-4.52,4.657-5.281c0.118-1.219,1.714-3.089,2.75-4.875c0.654-4.64,1.212-9.737,1.671-14.327
								C82.52,80.64,71.606,85.461,71.606,85.461z"/>
							<path fill="#F15A25" d="M63.73,86.934c-0.904,0.804-2.624,2.413-2.624,3.028c0,0,10.575,4.933,14.204,20.383h0
								c0.004-0.007,1.344-2.432,3.15-2.491l0.001-0.001C78.459,107.834,75.515,90.57,63.73,86.934z"/>
						</g>
						<g>
							<path fill="#E7552B" d="M185.826,127.635c-0.172,0.144-0.27,0.222-0.27,0.222c-2.08,1.183-4-1.062-4-1.062
								C183.068,127.895,184.502,128.057,185.826,127.635z"/>
							<path fill="#E7552B" d="M192.556,111.606c0.323,0.489,0.562,0.989,0.737,1.495c-0.238-0.503-0.486-0.998-0.742-1.485
								C192.551,111.614,192.556,111.606,192.556,111.606z"/>
							<path fill="#E7552B" d="M192.551,111.616c0.256,0.487,0.504,0.982,0.742,1.485c2.126,6.124-5.881,13.208-7.467,14.534
								c-1.324,0.422-2.758,0.26-4.27-0.84C184.7,125.968,192.438,111.821,192.551,111.616z"/>
							<path fill="#F15A25" d="M165.766,85.934L165.766,85.934c0,0,2.457,1.028,2.623,3.028
								C168.389,88.347,166.669,86.737,165.766,85.934z"/>
							<polygon fill="#F15A25" points="151.033,106.853 151.033,106.852 151.034,106.853 							"/>
							<polygon fill="#F15A25" points="154.186,109.345 154.185,109.344 154.186,109.344 							"/>
							<path fill="#808D88" d="M194.389,115.628c0,0,24.168-5.833,8.834,6c0,0,12.166,5,11.5,8.167c0,0-3.834,24.145-28.5-1.594
								C186.223,128.201,189.389,122.794,194.389,115.628z"/>
							<path fill="none" d="M163.411,86.899c1.37,1.963,1.146,4.396,1.146,4.396c0.006,0.091,0.021,0.176,0.029,0.266
								c-2.58,2.174-5.949,5.864-8.395,11.618c-0.664-0.943-1.826-2.178-3.063-3.436C154.938,95.17,158.119,89.604,163.411,86.899z"
								/>
							<path fill="#FBFBFB" d="M164.629,91.526c2.162-1.813,3.76-2.565,3.76-2.565s16.256,7.642,24.162,22.655
								c-0.031,0.057-0.641,1.168-1.568,2.762C186.838,113.395,166.391,107.73,164.629,91.526z"/>
							<path fill="#FBFBFB" d="M191.723,114.544c0,0-0.273-0.05-0.748-0.153c0.004-0.004,0.006-0.008,0.008-0.013
								C191.452,114.49,191.723,114.544,191.723,114.544z"/>
							<path fill="#FBFBFB" d="M164.586,91.561c0.016-0.012,0.028-0.022,0.043-0.034c1.762,16.204,22.209,21.869,26.354,22.852
								c-0.002,0.005-0.004,0.009-0.008,0.013C186.774,113.478,165.985,108.129,164.586,91.561z"/>
							<path fill="#F0F2F3" d="M164.568,91.046c0.014,0.164,0.043,0.318,0.061,0.48c-0.015,0.012-0.027,0.022-0.043,0.034
								c1.399,16.569,22.188,21.917,26.389,22.831c-1.594,2.74-4.133,6.904-6.342,9.649c-0.121-0.07-24.042-13.938-28.244-20.58
								c-0.056-0.089-0.129-0.188-0.197-0.283C158.637,97.424,161.988,93.22,164.568,91.046z"/>
							<path fill="#DFD5DD" d="M184.633,124.041c-1.188,1.477-2.279,2.544-3.076,2.754c0,0-16.77-9.455-27.371-17.451
								c0.535-2.28,1.225-4.326,2.006-6.166c0.068,0.095,0.142,0.194,0.197,0.283C160.591,110.104,184.512,123.971,184.633,124.041z
								"/>
							<path fill="#DFD5DD" d="M153.129,99.743c-1.549,3.918-2.095,7.102-2.096,7.109c-0.996-0.833-1.889-1.636-2.645-2.391
								c0,0-0.998-6.724-2.146-14.875c1.035,1.785,2.113,3.656,2.23,4.875C148.547,95.223,150.936,97.509,153.129,99.743z"/>
							<path fill="#FBFBFB" d="M165.223,85.461c0,0,0.221,0.186,0.543,0.472c-0.83,0.256-1.275,1.133-2.02,1.514
								c-0.116-0.167-0.25-0.339-0.398-0.512c0.021-0.011,0.041-0.024,0.063-0.036c-0.925-1.325-2.567-2.438-5.522-2.438
								c0,0-10.914-4.822-13.838-9.202c-0.414-4.144-0.748-7.875-0.994-10.465C143.057,64.795,163.389,78.795,165.223,85.461z"/>
							<path fill="#FBFBFB" d="M157.889,84.461c2.955,0,4.598,1.113,5.522,2.438c-0.022,0.011-0.042,0.024-0.063,0.036
								C162.309,85.731,160.473,84.461,157.889,84.461z"/>
							<path fill="#F0F2F3" d="M157.889,84.461c2.584,0,4.42,1.27,5.459,2.474c-5.253,2.717-8.417,8.254-10.219,12.808
								c-2.193-2.234-4.582-4.52-4.656-5.281c-0.117-1.219-1.715-3.089-2.75-4.875c-0.654-4.64-1.213-9.737-1.672-14.327
								C146.975,79.64,157.889,84.461,157.889,84.461z"/>
							<path fill="#F15A25" d="M165.766,85.934c0.903,0.804,2.623,2.413,2.623,3.028c0,0-10.574,4.933-14.203,20.383
								c0,0,0,0-0.001,0c-0.004-0.007-1.344-2.432-3.15-2.491c-0.001,0-0.001,0-0.001,0
								C151.035,106.834,153.98,89.57,165.766,85.934z"/>
						</g>
						<g>
							<path fill="#FFFFFE" d="M84.456,33.588c0.842-9.73,9.5-23.333,31.333-23.333c0,0,27.167-0.167,30.334,27.333
								c0,0,2.166,29.167-31.334,30.667C114.789,68.254,81.456,68.255,84.456,33.588z"/>
							<path fill="#EFF1F2" d="M95.641,17.588c0,0,17.667,5.333,38.334,0c0,0,23,16.666,3,41.333c0,0-18.5,21-45,0
								C91.975,58.921,73.641,38.422,95.641,17.588z"/>
							<path fill="#A2D5E4" stroke="#DACADD" stroke-width="0.988" stroke-miterlimit="10" d="M115.093,67.212
								c-0.634-0.003-15.623-0.199-23.993-10.969c-5.441-7.001-6.727-16.649-3.82-28.678l0.33-1.367l1.286-0.553
								c0.475-0.205,11.791-4.998,27.068-4.998c9.016,0,17.543,1.68,25.343,4.993l1.126,0.478l0.415,1.157
								c0.216,0.601,5.196,14.856-1.984,26.473c-4.662,7.543-13.224,12.067-25.445,13.446l-0.161,0.019L115.093,67.212z"/>
							<path fill="#DEF1F7" d="M140.789,28.088c-17.309-7.306-34.453-4.758-43.791-2.324c-1.622,5.59-4.517,23.441,23.082,27.186
								c0,0,11.616,0.682,21.804-7.749C143.799,36.439,140.789,28.088,140.789,28.088z"/>
							<path fill="#BCE4ED" stroke="#9DD6E4" stroke-miterlimit="10" d="M120.08,52.95c-27.599-3.745-24.704-21.596-23.082-27.186
								c-4.51,1.175-7.209,2.324-7.209,2.324c-8.833,36.333,25.5,36.5,25.5,36.5c18.277-2.049,24.742-10.91,26.595-19.387
								C131.696,53.632,120.08,52.95,120.08,52.95z"/>
							<ellipse fill="#EFF9FC" cx="125.122" cy="34.921" rx="13.167" ry="6.334"/>
							<path fill="#F98056" d="M116.592,14.61c0-1.244,2.098-2.253,4.684-2.253c0.649,0,1.267,0.063,1.828,0.178
								c0.221-0.668,0.403-1.146,0.52-1.314c0,0-10.248-2.356-17.287,0l3.45,12.334c0,0,7.716-0.594,10.337-0.282
								c0,0,0.84-3.286,1.713-6.437c-0.186,0.011-0.368,0.027-0.561,0.027C118.689,16.864,116.592,15.854,116.592,14.61z"/>
							<path fill="#F98056" d="M121.275,12.357c-2.586,0-4.684,1.009-4.684,2.253s2.098,2.253,4.684,2.253
								c0.192,0,0.375-0.017,0.561-0.027c0.451-1.629,0.91-3.218,1.268-4.301C122.542,12.42,121.925,12.357,121.275,12.357z"/>
							<path opacity="0.8" fill="#EFF9FC" d="M121.275,12.357c-2.586,0-4.684,1.009-4.684,2.253s2.098,2.253,4.684,2.253
								c0.192,0,0.375-0.017,0.561-0.027c0.451-1.629,0.91-3.218,1.268-4.301C122.542,12.42,121.925,12.357,121.275,12.357z"/>
							<path fill="#EEF1F2" d="M98.771,128.192c0.203,0.09,0.41,0.176,0.62,0.258c21.5,8.387,39.125-0.381,40-11.055
								c0,0,2.62-42.03-4.354-48.274c-18.25,5.883-32.784,2.631-40.963-0.525C92.322,74.465,79.554,119.647,98.771,128.192z"/>
							<path fill="#E2E7E6" d="M144.729,67.213l-0.736-1.615c-3.072,1.43-6.059,2.589-8.955,3.522
								c6.975,6.244,4.354,48.274,4.354,48.274c-0.875,10.674-18.5,19.442-40,11.055c-0.21-0.082-0.417-0.167-0.62-0.258
								c-19.218-8.544-6.449-53.727-4.697-59.596c-4.656-1.796-7.263-3.561-7.302-3.587l-1.006,2.205c0,0-6.693,53.081-5.103,58.5
								c0.828,2.819,0.625,7.125,6.375,9.875h28.209h28.208c5.75-2.75,5.548-7.056,6.375-9.875
								C151.422,120.294,144.729,67.213,144.729,67.213z"/>
							<path fill="#C1C4C7" d="M143.992,65.598l-3.83-8.398c-11.044,13.362-24.914,11.054-24.914,11.054S101.377,70.563,90.333,57.2
								l-3.561,7.808C86.89,65.089,110.539,81.177,143.992,65.598z"/>
							<path fill="#F75C2A" d="M108.771,19.926h12.227l-0.875,3.347c0,0-6.752-0.115-10.337,0.282L108.771,19.926z"/>
						</g>
					</g>
					<g>
						<path fill="#EE7A5B" d="M90.781,99.758c-0.129,0-0.259-0.025-0.385-0.078c-0.51-0.212-0.75-0.798-0.538-1.307
							c0.062-0.148,6.068-14.948-1.812-27.961C80.41,57.799,78.56,44.039,82.97,32.657c0.2-0.515,0.782-0.77,1.294-0.571
							c0.515,0.2,0.771,0.779,0.571,1.294c-4.185,10.798-2.39,23.918,4.923,35.996c8.416,13.9,2.215,29.126,1.946,29.768
							C91.543,99.527,91.172,99.758,90.781,99.758z"/>
					</g>
					<path fill="#FA7E5C" d="M81.277,108.144c0,0,4.75-10,6.75-11.5c0,0,5.375,2.875,6.125,8.5c0,0-3.703,27.819-6.765,30.444
						C87.387,135.588,76.852,135.15,81.277,108.144z"/>
				</g>
			</g>
			<ellipse fill="#FFFFFF" cx="114.789" cy="98.9" rx="19.563" ry="23.063"/>
			<path fill="#6E7A80" d="M129.227,99.796c0,3.129-1.676,5.667-3.742,5.667h-20.266c-2.066,0-3.742-2.537-3.742-5.667v-9.917
				c0-3.129,1.676-5.667,3.742-5.667h20.266c2.066,0,3.742,2.537,3.742,5.667V99.796z"/>
			<path fill="#BCC2C5" d="M106.477,101.37c0,0.742-0.644,1.343-1.438,1.343l0,0c-0.794,0-1.438-0.601-1.438-1.343v-9.689
				c0-0.742,0.644-1.343,1.438-1.343l0,0c0.794,0,1.438,0.601,1.438,1.343V101.37z"/>
			<path fill="#EAF0F1" d="M106.078,100.025c0,0.536-0.465,0.97-1.039,0.97l0,0c-0.574,0-1.039-0.434-1.039-0.97v-6.999
				c0-0.536,0.465-0.97,1.039-0.97l0,0c0.574,0,1.039,0.434,1.039,0.97V100.025z"/>
			<path fill="#BCC2C5" d="M115.977,84.057v13.036c0,0.999-1.31,1.807-2.926,1.807l0,0c-1.615,0-2.926-0.809-2.926-1.807V84.057"/>
			<path fill="#EAF0F1" d="M115.143,86.171v10.356c0,0.793-0.936,1.436-2.092,1.436l0,0c-1.155,0-2.092-0.642-2.092-1.436V86.171"/>
			<circle fill="#B23E43" cx="120.227" cy="88.504" r="1.666"/>
			<circle fill="#C1BD56" cx="125.227" cy="88.504" r="2.25"/>
			<rect x="119.477" y="98.504" fill="#354960" width="8.75" height="3.5"/>
			<rect x="102.727" y="119.588" fill="#959EA6" width="25.5" height="5.917"/>
		</g>
	</g>
	<g>
		<g>
			<path fill="#EFF0F2" d="M142.289,144.213c0,0,12.125,34.5,10.625,41.625c0,0,10.25,26.625,7.5,43.75c0,0-8.125,6.625-22.625,4.5
				c0,0-7.625-28.375-9.375-40.875c0,0-11.875-21.625-10.625-30.75c0,0-1.333-1.875-2.541-1.375l-0.459-17.919
				C114.789,143.169,141.898,143.089,142.289,144.213z"/>
			<path fill="#E3E7E8" d="M134.039,144.213c0,0,16.06,22.566,17.092,42.908l1.783-1.283c0,0-7.5-36.5-11.25-41.625H134.039z"/>
			<path fill="#F25720" d="M127.291,191.087c0,0,20.873-0.374,25.623-5.249l2.123,6.165c0,0-12.887,6.167-25.88,5.688
				C129.157,197.691,129.139,194.781,127.291,191.087z"/>
			<path fill="#BFC3C5" d="M151.929,248.594c0.223-3.433,0.835-7.168,2.423-7.881c2.386-1.071,9.277-3.388,14.416-3.375
				c-1.904-2.188-7.428-8.389-8.354-7.75c0,0-4.635,4.602-19.932,4.818C141.294,237.047,144.203,244.078,151.929,248.594z"/>
			<path fill="#EFF1F1" d="M169.414,238.088c0,0-0.244-0.287-0.646-0.75c-5.139-0.013-12.03,2.304-14.416,3.375
				c-1.588,0.713-2.2,4.448-2.423,7.881c6.109,3.571,15.228,5.571,28.716,2.576C180.711,246.785,179.785,236.508,169.414,238.088z"
				/>
			<path fill="#A0AAB0" d="M151.929,248.594c-7.726-4.516-10.635-11.547-11.446-14.188c-0.852,0.012-1.729,0.014-2.646-0.003
				c0,0-1.797,10.685,1.453,12.935c0,0,4.969,3.584,12.529,6.127C151.801,252.314,151.805,250.502,151.929,248.594z"/>
			<path fill="#C7CCD5" d="M151.929,248.594c-0.124,1.908-0.128,3.721-0.11,4.871c7.711,2.593,18.118,4.104,28.721-0.377
				c0,0,0.087-0.754,0.105-1.918C167.156,254.165,158.038,252.165,151.929,248.594z"/>
			<ellipse fill="#FDFDFF" cx="170.572" cy="243.213" rx="7.938" ry="1.813"/>
		</g>
		<g>
			<path fill="#EFF0F2" d="M88.206,144.213c0,0-12.125,34.5-10.625,41.625c0,0-10.25,26.625-7.5,43.75c0,0,8.125,6.625,22.625,4.5
				c0,0,7.625-28.375,9.375-40.875c0,0,11.875-21.625,10.625-30.75c0,0,1.333-1.875,2.542-1.375l0.458-17.919
				C115.706,143.169,88.596,143.089,88.206,144.213z"/>
			<path fill="#E3E7E8" d="M96.456,144.213c0,0-16.06,22.566-17.092,42.908l-1.783-1.283c0,0,7.5-36.5,11.25-41.625H96.456z"/>
			<path fill="#F25720" d="M103.205,191.087c0,0-20.874-0.374-25.624-5.249l-2.124,6.165c0,0,12.887,6.167,25.88,5.688
				C101.338,197.691,101.355,194.781,103.205,191.087z"/>
			<path fill="#BFC3C5" d="M78.566,248.594c-0.223-3.433-0.835-7.168-2.423-7.881c-2.386-1.071-9.278-3.388-14.416-3.375
				c1.903-2.188,7.427-8.389,8.353-7.75c0,0,4.634,4.602,19.931,4.818C89.201,237.047,86.292,244.078,78.566,248.594z"/>
			<path fill="#EFF1F1" d="M61.081,238.088c0,0,0.244-0.287,0.647-0.75c5.138-0.013,12.03,2.304,14.416,3.375
				c1.587,0.713,2.2,4.448,2.423,7.881c-6.109,3.571-15.228,5.571-28.715,2.576C49.784,246.785,50.71,236.508,61.081,238.088z"/>
			<path fill="#A0AAB0" d="M78.566,248.594c7.725-4.516,10.635-11.547,11.445-14.188c0.852,0.012,1.729,0.014,2.647-0.003
				c0,0,1.797,10.685-1.453,12.935c0,0-4.968,3.584-12.53,6.127C78.694,252.314,78.69,250.502,78.566,248.594z"/>
			<path fill="#C7CCD5" d="M78.566,248.594c0.124,1.908,0.127,3.721,0.11,4.871c-7.71,2.593-18.118,4.104-28.72-0.377
				c0,0-0.087-0.754-0.105-1.918C63.338,254.165,72.457,252.165,78.566,248.594z"/>
			<ellipse fill="#FDFDFF" cx="59.923" cy="243.213" rx="7.938" ry="1.813"/>
		</g>
	</g>
	<path fill="none" d="M65.664,213.33c0.291,0.15,0.605,0.3,0.954,0.447c0.016-0.105,0.029-0.207,0.046-0.314
		C66.664,213.463,66.269,213.513,65.664,213.33z"/>
	<path fill="#808D8C" d="M68.414,229.542c2.375,4.204,16.625,5.057,16.625,5.057c3.056-3.192,4.494-11.402,5.168-17.895
		c-13.038-0.056-19.953-1.385-23.589-2.927C64.604,226.998,68.414,229.542,68.414,229.542z"/>
	<path opacity="0.5" fill="#808D8C" d="M62.954,210.889c-0.025,0.197-0.04,0.324-0.04,0.324c1.017,1.356,2.032,1.9,2.75,2.117
		C64.051,212.493,63.285,211.628,62.954,210.889z"/>
	<path fill="#96A6A5" d="M66.664,201.338c-2.447,0.667-3.506,7.95-3.71,9.551c0.331,0.739,1.097,1.604,2.71,2.441
		c0.605,0.183,1,0.133,1,0.133c-0.017,0.107-0.03,0.209-0.046,0.314c3.637,1.542,10.552,2.871,23.589,2.927
		c0.512-4.927,0.582-8.866,0.582-8.866C88.914,209.588,66.664,201.338,66.664,201.338z"/>
</g>
</svg>
