<?xml version="1.0" encoding="utf-8"?>
<!-- Generator: Adobe Illustrator 21.0.0, SVG Export Plug-In . SVG Version: 6.00 Build 0)  -->
<svg version="1.1" id="OBJECTS" xmlns="http://www.w3.org/2000/svg" xmlns:xlink="http://www.w3.org/1999/xlink" x="0px" y="0px"
	 viewBox="0 0 313.5 313.5" style="enable-background:new 0 0 313.5 313.5;" xml:space="preserve">
<style type="text/css">
	.st0{opacity:0.3;fill:#231F20;}
	.st1{fill:#898796;}
	.st2{opacity:0.1;fill:#231F20;}
	.st3{fill:#EFF7FA;}
	.st4{fill:none;stroke:#D9D7E2;stroke-miterlimit:10;}
	.st5{fill:#054A8F;}
	.st6{fill:#C64747;}
	.st7{fill:#D9D7E2;}
	.st8{fill:#FCFBFF;}
	.st9{fill:#292534;}
	.st10{fill:#3F3A4E;}
	.st11{fill:#FFFFFF;}
	.st12{fill:none;stroke:#EFF7FA;stroke-miterlimit:10;}
	.st13{fill:#59C0D8;}
</style>
<g>
	<path class="st0" d="M306.9,296.8c0,0-39.4,7.9-87.9,7.9s-179.7-7.9-179.7-7.9s131.2-7.9,179.7-7.9S306.9,296.8,306.9,296.8z"/>
	<path class="st1" d="M258.9,216.8H179c-6.6,0-12-5.4-12-12v-86.7c0-6.6,5.4-12,12-12h79.9c6.6,0,12,5.4,12,12v86.7
		C270.9,211.4,265.5,216.8,258.9,216.8z"/>
	<path class="st2" d="M251.6,216.8h-65.3c-7.2,0-13-5.8-13-13V137h91.3v66.9C264.6,211,258.8,216.8,251.6,216.8z"/>
	<g>
		<g>
			<path class="st3" d="M188.8,151.3c-0.1,0.8-0.2,1.6-0.3,2.3c-0.5,3-3.5,5.6-5.4,7.8c-4.8,5.3-10.2,10-16.3,13.6
				c-13.7,8.2-29.7,9.6-44.8,4.6c-5.5-1.8-3.7-3-3.4-9.2c0.1-2.7,1.5-5,3.8-6.4c2.7-1.6,6-1.5,9-1.3c6.2,0.5,12.5,0.3,18.3-1.9
				c5.1-2,8.9-6.2,12.7-9.9c2-1.9,3.6-4.1,5.4-6.2c1.7-2,3.6-4.8,5.9-6.3c4.1-2.7,10.7-0.2,13.3,3.4
				C188.9,144.7,189.1,148,188.8,151.3z"/>
		</g>
		<path class="st4" d="M127.8,173.8c0,0,10,2.7,21.3,0.3c8-1.7,20.7-10,20.7-10"/>
		<path class="st2" d="M187.2,160.1c0.3-8.5-0.5-20.5-7.6-21.6c-11.6,6.3-19.1,17.3-30.4,22.5l14.3,15.9c0,0,5.2-2.8,6.3-3.9
			c3.8-3.9,5.7-4.8,9.9-8C181.7,163.4,184.4,161.8,187.2,160.1z"/>
		<path class="st3" d="M150,154.4l20.7,18.5l16.4-6.1c0,0,12.8-30.7-2.3-31.3C169.9,135,159,137,150,154.4z"/>
		<path class="st2" d="M174.9,135.7l0,35.6l12.2-4.5c0,0,12.8-30.7-2.3-31.3C181.3,135.4,178,135.4,174.9,135.7z"/>
		<path class="st3" d="M123.2,174.8l1.2-8.4c0.3-2.2-1.2-4.3-3.4-4.6l-8.4-1.5c-4.5-0.7-8.8,2.5-9.4,7l0,0c-0.7,4.5,2.5,8.8,7,9.4
			l8.4,1.5C120.8,178.6,122.8,177.1,123.2,174.8z"/>
		<path class="st3" d="M122.6,166.1c0.2-0.3,0.4-0.6,0.5-1c0.2-1.1-0.3-2.2-0.9-3.1c-1.9-2.5-3.5-4.3-2.7-7.6
			c0.6-2.6-1.2-3.8-3.6-3.1c-4,1.1-4.5,7.2-2.8,10.3c1.2,2.2,3.6,3.5,5.5,5C119.8,167.6,121.7,167.3,122.6,166.1z"/>
		<path class="st2" d="M122.1,162c0.1,0.1,0.1,0.1,0.2,0.2c1.4,0.8,2.3,2.4,2.1,4.1l-1.2,8.4c-0.3,2.2-2.4,3.8-4.6,3.4l-4.6-0.7
			l6.6-17.7L122.1,162z"/>
		<path class="st3" d="M122.3,160.6l-3.4,18.8c-0.4,2.2,1.1,4.4,3.3,4.8l0,0c2.2,0.4,4.4-1.1,4.8-3.3l3.4-18.8
			c0.4-2.2-1.1-4.4-3.3-4.8l0,0C124.8,156.9,122.7,158.4,122.3,160.6z"/>
		<path class="st5" d="M169.6,136.7c-3.8,1-7.3,2.7-10.6,5.5l7.7,15.3l10.6-5.4L169.6,136.7z"/>
	</g>
	<g>
		<g>
			<path class="st3" d="M255.4,136.6c21.3,10.5,43.6,31.1,37.5,64.3c-1,5.7-2.4,4.1-8.6,4.7c-2.6,0.2-5.2-0.8-6.9-2.9
				c-2-2.4-2.4-5.7-2.5-8.7c-0.4-6.2-1.4-12.4-4.5-17.8c-2.6-4.7-7.4-8-11.6-11.2c-6.7-5.1-20.9-10.1-18.1-21
				C242.5,137.4,249.2,133.6,255.4,136.6z"/>
		</g>
		<path class="st4" d="M286.4,195.9c0,0,1.2-10.2-2.7-21.1c-2.8-7.7-12.8-19.1-12.8-19.1"/>
		<path class="st2" d="M251.1,160.1c-0.3-8.5,0.5-20.5,7.6-21.6c11.6,6.3,23,15.6,29.5,28.4l-18,9.3c0,0,0,0,0,0
			c-2.6-4.7-7.4-8-11.6-11.2C256.6,163.4,253.9,161.8,251.1,160.1z"/>
		<path class="st3" d="M289.2,157.6l-21.8,17.2l-16-7c0,0-10.9-31.4,4.1-31.1C270.5,137,281.2,139.7,289.2,157.6z"/>
		<path class="st2" d="M265.4,137.4l-2.1,35.5l-11.9-5.2c0,0-10.9-31.4,4.1-31.1C259.1,136.7,262.4,136.9,265.4,137.4z"/>
		<path class="st3" d="M288,200.3l-8.5,0c-2.2,0-4.1,1.8-4.1,4l-0.1,16.6c0,4.6,3.7,8.3,8.3,8.3h0c4.6,0,8.3-3.7,8.3-8.3l0.1-16.6
			C292.1,202.2,290.3,200.3,288,200.3z"/>
		<path class="st3" d="M279.5,202.1L279.5,202.1c-1.4-0.8-3.1-0.3-3.9,1l-5.2,8.9c-0.8,1.4-0.3,3.1,1,3.9l0,0c1.4,0.8,3.1,0.3,3.9-1
			l5.2-8.9C281.3,204.7,280.8,202.9,279.5,202.1z"/>
		<path class="st2" d="M275.5,203.2c0.1-0.1,0.1-0.2,0.2-0.2c0.6-1.5,2.1-2.6,3.8-2.6l8.5,0c2.2,0,4.1,1.8,4,4.1l0,4.6l-17.6-3.9
			L275.5,203.2z"/>
		<path class="st3" d="M274.1,203.2l19.1,0.7c2.3,0.1,4.2-1.7,4.3-4l0,0c0.1-2.3-1.7-4.2-4-4.3l-19.1-0.7c-2.3-0.1-4.2,1.7-4.3,4
			l0,0C270,201.2,271.8,203.1,274.1,203.2z"/>
		<path class="st6" d="M270.7,138.7c3.8,1.2,7.1,3.1,10.2,6.1l-8.6,14.8l-10.3-6L270.7,138.7z"/>
	</g>
	<g>
		<path class="st3" d="M207,273.8c0-0.4-0.1-0.8-0.1-1.2c-1.7-10.3-1.2-20.2,0.1-30.8c0.5-4.6,1.2-9.2,2.1-13.7
			c0.2-0.8,0.3-1.6,0.5-2.4c0,0,0,0,0,0c0.3-1.1,0.6-2.3,1-3.4c4.9-14.6-17.6-23-22.5-8.3c-2.7,8.1-4,17.1-5,25.6
			c-1.3,11.3-1.7,23-0.2,34.3"/>
		<path class="st1" d="M182.8,273.8h-12.3c-5.4,0-9.9,4.4-9.9,9.9v9.9H207v-17.9c0-0.6,0-1.2,0-1.8v0h0"/>
		<path class="st2" d="M196.2,206.5c6.6,1.3,12.5,7.5,9.7,15.7c-0.4,1.1-0.6,2.3-1,3.4c0,0,0,0,0,0c-0.2,0.8-0.3,1.6-0.5,2.4
			c-0.9,4.5-1.6,9.1-2.1,13.7c-1.2,10.6-1.8,20.6-0.1,30.8c0.1,0.4,0.1,0.8,0.1,1.2h0v0c0,0.6,0,1.2,0,1.8v17.9v3.3h4.8v-3.3v-17.9
			c0-0.6,0-1.2,0-1.8v0h0c0-0.4-0.1-0.8-0.1-1.2c-1.7-10.3-1.2-20.2,0.1-30.8c0.5-4.6,1.2-9.2,2.1-13.7c0.2-0.8,0.3-1.6,0.5-2.4
			c0,0,0,0,0,0c0.3-1.1,0.6-2.3,1-3.4C214.2,212,204.2,204.8,196.2,206.5z"/>
		<path class="st7" d="M206.2,273.8h-22.6c-2.3,0-4.1-1.8-4.1-4.1v0c0-2.3,1.8-4.1,4.1-4.1h22.6c2.3,0,4.1,1.8,4.1,4.1v0
			C210.3,272,208.5,273.8,206.2,273.8z"/>
		<rect x="160.6" y="293.5" class="st7" width="46.4" height="3.3"/>
		<line class="st4" x1="181.8" y1="258.8" x2="205.8" y2="258.8"/>
		<line class="st4" x1="182" y1="251.6" x2="205.8" y2="251.6"/>
	</g>
	<g>
		<path class="st3" d="M231,273.8c0-0.4,0.1-0.8,0.1-1.2c1.7-10.3,1.2-20.2-0.1-30.8c-0.5-4.6-1.2-9.2-2.1-13.7
			c-0.2-0.8-0.3-1.6-0.5-2.4c0,0,0,0,0,0c-0.3-1.1-0.6-2.3-1-3.4c-4.9-14.6,17.6-23,22.5-8.3c2.7,8.1,4,17.1,5,25.6
			c1.3,11.3,1.7,23,0.2,34.3"/>
		<path class="st1" d="M255.2,273.8h12.3c5.4,0,9.9,4.4,9.9,9.9v9.9H231v-17.9c0-0.6,0-1.2,0-1.8v0h0"/>
		<path class="st2" d="M241.8,206.5c-6.6,1.3-12.5,7.5-9.7,15.7c0.4,1.1,0.6,2.3,1,3.4c0,0,0,0,0,0c0.2,0.8,0.3,1.6,0.5,2.4
			c0.9,4.5,1.6,9.1,2.1,13.7c1.2,10.6,1.8,20.6,0.1,30.8c-0.1,0.4-0.1,0.8-0.1,1.2h0v0c0,0.6,0,1.2,0,1.8v17.9v3.3h-4.8v-3.3v-17.9
			c0-0.6,0-1.2,0-1.8v0h0c0-0.4,0.1-0.8,0.1-1.2c1.7-10.3,1.2-20.2-0.1-30.8c-0.5-4.6-1.2-9.2-2.1-13.7c-0.2-0.8-0.3-1.6-0.5-2.4
			c0,0,0,0,0,0c-0.3-1.1-0.6-2.3-1-3.4C223.8,212,233.8,204.8,241.8,206.5z"/>
		<path class="st7" d="M231.8,273.8h22.6c2.3,0,4.1-1.8,4.1-4.1v0c0-2.3-1.8-4.1-4.1-4.1h-22.6c-2.3,0-4.1,1.8-4.1,4.1v0
			C227.7,272,229.5,273.8,231.8,273.8z"/>
		
			<rect x="231" y="293.5" transform="matrix(-1 -1.224647e-16 1.224647e-16 -1 508.4297 590.3662)" class="st7" width="46.4" height="3.3"/>
		<line class="st4" x1="256.2" y1="258.8" x2="232.2" y2="258.8"/>
		<line class="st4" x1="256" y1="251.6" x2="232.2" y2="251.6"/>
	</g>
	<path class="st7" d="M268.6,94.7h-99.3c-6.6,0-12-5.4-12-12v-8.8c0-6.6,5.4-12,12-12h99.3c6.6,0,12,5.4,12,12v8.8
		C280.6,89.3,275.2,94.7,268.6,94.7z"/>
	<path class="st8" d="M226.9,125.5h-16c-24.8,0-45-20.2-45-45v-8.2c0-28,22.9-51,51-51h4c28,0,51,22.9,51,51v8.2
		C271.9,105.3,251.7,125.5,226.9,125.5z"/>
	<path class="st2" d="M226.9,114h-16c-24.2,0-44.1-19.4-45-43.4c0,0.5,0,1.1,0,1.6v8.2c0,24.8,20.2,45,45,45h16
		c24.8,0,45-20.2,45-45v-8.2c0-0.6,0-1.1,0-1.6C271,94.6,251.1,114,226.9,114z"/>
	<path class="st9" d="M233.6,116.2h-29.3c-17.1,0-31-14-31-31v-7.7c0-21.4,17.6-39,39-39h13.3c21.5,0,39,17.6,39,39v7.7
		C264.6,102.2,250.6,116.2,233.6,116.2z"/>
	<path class="st10" d="M233.6,106.1h-29.3c-16.7,0-30.3-13.3-31-29.8c0,0.4,0,0.8,0,1.2v7.7c0,17,13.9,31,31,31h29.3
		c17,0,31-14,31-31v-7.7c0-0.4,0-0.8,0-1.2C263.9,92.8,250.2,106.1,233.6,106.1z"/>
	<g>
		<path class="st11" d="M180.6,82.5c-2.3-5.1-2.4-10.9-1-16.4c1.4-5.5,4.4-10.6,8.4-14.7c4.1-4.1,9.2-7.1,14.7-8.5
			c5.5-1.4,11.3-1.3,16.4,1c-5,2.3-9.2,4.4-13,6.9c-3.8,2.5-7.2,5.2-10.2,8.3c-3.1,3.1-5.8,6.4-8.3,10.2
			C185,73.3,182.9,77.5,180.6,82.5z"/>
	</g>
	<path class="st3" d="M259.4,126.7h-81.1c-2.8,0-5.1-2.3-5.1-5.1v0c0-2.8,2.3-5.1,5.1-5.1h81.1c2.8,0,5.1,2.3,5.1,5.1v0
		C264.6,124.4,262.3,126.7,259.4,126.7z"/>
	<path class="st2" d="M259.4,123h-81.1c-2.2,0-4.1-1.4-4.8-3.3c-0.2,0.6-0.4,1.2-0.4,1.8v0c0,2.8,2.3,5.1,5.1,5.1h81.1
		c2.8,0,5.1-2.3,5.1-5.1v0c0-0.6-0.1-1.3-0.4-1.8C263.5,121.6,261.6,123,259.4,123z"/>
	<path class="st7" d="M259.4,136.9h-81.1c-2.8,0-5.1-2.3-5.1-5.1v0c0-2.8,2.3-5.1,5.1-5.1h81.1c2.8,0,5.1,2.3,5.1,5.1v0
		C264.6,134.6,262.3,136.9,259.4,136.9z"/>
	<path class="st7" d="M237.6,228.6h-37.3c-7.2,0-13-5.8-13-13v-66.9h63.3v66.9C250.6,222.7,244.8,228.6,237.6,228.6z"/>
	<path class="st2" d="M187.3,215.6c0,1.8,0.4,3.6,1.1,5.2h53.6c3.2,0,6.2-1.2,8.5-3.2c0.1-0.7,0.2-1.3,0.2-2v-66.9h-63.3V215.6z"/>
	<path class="st2" d="M259.4,133.3h-81.1c-2.2,0-4.1-1.4-4.8-3.3c-0.2,0.6-0.4,1.2-0.4,1.8v0c0,2.8,2.3,5.1,5.1,5.1h81.1
		c2.8,0,5.1-2.3,5.1-5.1v0c0-0.6-0.1-1.3-0.4-1.8C263.5,131.9,261.6,133.3,259.4,133.3z"/>
	<path class="st3" d="M245.8,216.8H192c-7.2,0-13-5.8-13-13v-66.9h79.9v66.9C258.8,211,253,216.8,245.8,216.8z"/>
	<path class="st7" d="M237.6,196.2h-37.3c-6.6,0-12-5.4-12-12v-10.6c0-6.6,5.4-12,12-12h37.3c6.6,0,12,5.4,12,12v10.6
		C249.6,190.8,244.2,196.2,237.6,196.2z"/>
	<path class="st2" d="M242.9,162.7c1.4,2,2.2,4.3,2.2,6.9v10.6c0,6.6-5.4,12-12,12h-37.3c-1.8,0-3.4-0.4-4.9-1.1
		c2.2,3.1,5.8,5.1,9.8,5.1h37.3c6.6,0,12-5.4,12-12v-10.6C249.9,168.7,247,164.6,242.9,162.7z"/>
	<path class="st1" d="M238,174.9h-21.5c-1.3,0-2.4-1.1-2.4-2.4l0,0c0-1.3,1.1-2.4,2.4-2.4H238c1.3,0,2.4,1.1,2.4,2.4l0,0
		C240.5,173.8,239.4,174.9,238,174.9z"/>
	<path class="st1" d="M238,186.3h-21.5c-1.3,0-2.4-1.1-2.4-2.4l0,0c0-1.3,1.1-2.4,2.4-2.4H238c1.3,0,2.4,1.1,2.4,2.4l0,0
		C240.5,185.2,239.4,186.3,238,186.3z"/>
	<circle class="st6" cx="202.8" cy="171.8" r="4.6"/>
	<circle class="st1" cx="202.8" cy="183.9" r="3.3"/>
	<rect x="213.8" y="136.9" class="st7" width="10.3" height="24.6"/>
	<line class="st12" x1="218.9" y1="136.9" x2="218.9" y2="161.6"/>
	<line class="st4" x1="179" y1="203.8" x2="258.8" y2="203.8"/>
	<g>
		<g>
			<g>
				<path class="st13" d="M10.8,81.3c32.6-11.9,63.2,4.8,95.7-7.1c-1.4-19-2.8-37.9-4.2-56.9c-32.6,11.9-63.2-4.8-95.7,7.1
					C8,43.3,9.4,62.3,10.8,81.3z"/>
			</g>
			<path class="st2" d="M78.8,21.7c7.8-0.3,15.6-1.5,23.6-4.4c1.4,19,2.8,37.9,4.2,56.9c-11.9,4.4-23.6,4.9-35.2,4.4
				C73.8,59.6,76.3,40.7,78.8,21.7z"/>
		</g>
		<g>
			<g>
				<path class="st7" d="M100.8,8.7c3.8,29.4,4.6,59.3,6,88.8c2.1,44.4,3.5,88.8,3.6,133.3c0.1,21.4-0.1,42.8-1.2,64.1
					c-0.2,3.2,4.8,3.2,5,0c2.1-41,1.3-82.1,0.2-123.1c-1.1-41.2-2.7-82.4-5.4-123.6c-0.9-13.2-1.6-26.4-3.3-39.5
					C105.4,5.5,100.4,5.5,100.8,8.7L100.8,8.7z"/>
			</g>
		</g>
	</g>
	
		<ellipse transform="matrix(0.3128 -0.9498 0.9498 0.3128 -83.8747 217.5667)" class="st3" cx="108.4" cy="166.7" rx="8.7" ry="5.2"/>
</g>
<g>
	<path class="st11" d="M26.8,53.2L23,46.9V53c0,0.2-0.2,0.4-0.4,0.4c-0.2,0-0.4-0.2-0.4-0.4v-7.5c0-0.2,0.1-0.3,0.3-0.4
		c0.2,0,0.3,0,0.4,0.2l3.8,6.3v-6.1c0-0.2,0.2-0.4,0.4-0.4c0.2,0,0.4,0.2,0.4,0.4V53c0,0.2-0.1,0.3-0.3,0.4c0,0-0.1,0-0.1,0
		C27,53.4,26.8,53.3,26.8,53.2z"/>
	<path class="st11" d="M31.9,45.9v3h2.4c0.2,0,0.4,0.2,0.4,0.4c0,0.2-0.2,0.4-0.4,0.4h-2.4v3h3.3c0.2,0,0.4,0.2,0.4,0.4
		c0,0.2-0.2,0.4-0.4,0.4h-3.7c-0.2,0-0.4-0.2-0.4-0.4v-7.5c0-0.2,0.2-0.4,0.4-0.4h3.7c0.2,0,0.4,0.2,0.4,0.4c0,0.2-0.2,0.4-0.4,0.4
		H31.9z"/>
	<path class="st11" d="M42.2,45.9V53c0,0.2-0.2,0.4-0.4,0.4c-0.2,0-0.4-0.2-0.4-0.4v-7.1h-1.9c-0.2,0-0.4-0.2-0.4-0.4
		c0-0.2,0.2-0.4,0.4-0.4h4.5c0.2,0,0.4,0.2,0.4,0.4c0,0.2-0.2,0.4-0.4,0.4H42.2z"/>
	<path class="st11" d="M50.5,53.4c-1.3,0-2.4-1.1-2.4-2.4v-5.5c0-0.2,0.2-0.4,0.4-0.4h2c0,0,0.1,0,0.1,0c1.2,0.1,2.1,1.1,2.1,2.4
		c0,0.5-0.2,1.1-0.7,1.5c0.8,0.4,1.3,1.1,1.3,2c0,1.3-1.1,2.4-2.4,2.4H50.5z M48.9,45.9v2.8h1.9c0.8,0,1.2-0.7,1.2-1.2
		c0-0.9-0.7-1.6-1.6-1.6H48.9z M50.5,52.6H51c0.9,0,1.6-0.7,1.6-1.6c0-0.9-0.7-1.5-1.9-1.5h-1.9V51C48.9,51.9,49.6,52.6,50.5,52.6z"
		/>
	<path class="st11" d="M61.9,53.4h-4.5c-0.2,0-0.4-0.2-0.4-0.4v-7.5c0-0.2,0.2-0.4,0.4-0.4c0.2,0,0.4,0.2,0.4,0.4v7.1h4.1
		c0.2,0,0.4,0.2,0.4,0.4C62.2,53.2,62.1,53.4,61.9,53.4z"/>
	<path class="st11" d="M71.1,45.6V51c0,1.3-1.1,2.4-2.4,2.4h-0.5c-1.3,0-2.4-1.1-2.4-2.4v-5.5c0-0.2,0.2-0.4,0.4-0.4
		c0.2,0,0.4,0.2,0.4,0.4V51c0,0.9,0.7,1.6,1.6,1.6h0.5c0.9,0,1.6-0.7,1.6-1.6v-5.5c0-0.2,0.2-0.4,0.4-0.4
		C71,45.2,71.1,45.3,71.1,45.6z"/>
	<path class="st11" d="M75.6,45.9v3h2.4c0.2,0,0.4,0.2,0.4,0.4c0,0.2-0.2,0.4-0.4,0.4h-2.4v3h3.3c0.2,0,0.4,0.2,0.4,0.4
		c0,0.2-0.2,0.4-0.4,0.4h-3.7c-0.2,0-0.4-0.2-0.4-0.4v-7.5c0-0.2,0.2-0.4,0.4-0.4h3.7c0.2,0,0.4,0.2,0.4,0.4c0,0.2-0.2,0.4-0.4,0.4
		H75.6z"/>
	<path class="st11" d="M88.1,53c0,0.2-0.2,0.4-0.4,0.4h-4.5c-0.1,0-0.3-0.1-0.3-0.2c-0.1-0.1-0.1-0.3,0-0.4l4.1-6.9h-3.8
		c-0.2,0-0.4-0.2-0.4-0.4c0-0.2,0.2-0.4,0.4-0.4h4.5c0.1,0,0.3,0.1,0.3,0.2c0.1,0.1,0.1,0.3,0,0.4L84,52.6h3.8
		C88,52.6,88.1,52.8,88.1,53z"/>
	<path class="st11" d="M93.1,52.8c0,0.3-0.3,0.6-0.6,0.6c-0.3,0-0.6-0.3-0.6-0.6c0-0.3,0.3-0.6,0.6-0.6
		C92.8,52.1,93.1,52.4,93.1,52.8z M92.2,52.8C92.2,52.8,92.2,52.8,92.2,52.8C92.2,52.8,92.2,52.8,92.2,52.8
		C92.2,52.7,92.2,52.7,92.2,52.8C92.2,52.7,92.2,52.7,92.2,52.8z M92.4,52.6C92.4,52.6,92.4,52.6,92.4,52.6
		C92.4,52.6,92.4,52.6,92.4,52.6C92.5,52.6,92.5,52.6,92.4,52.6C92.5,52.6,92.5,52.6,92.4,52.6z"/>
</g>
</svg>
