<?xml version="1.0" encoding="utf-8"?>
<!-- Generator: Adobe Illustrator 21.0.0, SVG Export Plug-In . SVG Version: 6.00 Build 0)  -->
<svg version="1.1" id="Isolation_Mode" xmlns="http://www.w3.org/2000/svg" xmlns:xlink="http://www.w3.org/1999/xlink" x="0px"
	 y="0px" viewBox="0 0 344.7 413.8" style="enable-background:new 0 0 344.7 413.8;" xml:space="preserve">
<style type="text/css">
	.st0{opacity:6.000000e-02;fill:#FFFFFF;enable-background:new    ;}
	.st1{fill:url(#SVGID_1_);}
	.st2{opacity:0.15;}
	.st3{fill:#230753;}
	.st4{fill:#DDDDDD;}
	.st5{fill:#FF1200;}
	.st6{fill:#F4F2ED;}
	.st7{fill:#040028;}
	.st8{fill:none;stroke:#F4F2ED;stroke-width:0.3;stroke-linecap:round;stroke-linejoin:round;stroke-miterlimit:10;}
</style>
<g>
	<g>
		<path class="st0" d="M288.6,302.4L165.3,133.5c-12-13.9-36.9-12.2-55.3,3.7l-4.6,4c-18.4,15.9-23.6,40.3-11.6,54.2l92.3,94.6
			c1.6,1.7,4.5,0.3,4.2-2.1l-1.5-10.3l148.5,131.7c2.1,1.9,5.2-0.7,3.7-3.1l-66.3-105.8l10.8,5.6
			C287.8,307.2,290.1,304.5,288.6,302.4z"/>
		<path class="st0" d="M270.2,291.5L162,145.5c-10.5-12.1-31-11.6-45.7,1l-3.7,3.2c-14.6,12.7-18,33-7.5,45.1l79.8,82.6
			c1.4,1.5,3.9,0.2,3.5-1.8l-1.5-8.2l127.3,115.5c1.8,1.6,4.4-0.6,3.1-2.6l-58.5-90.5l8.7,4.8C269.4,295.6,271.5,293.3,270.2,291.5z
			"/>
		
			<linearGradient id="SVGID_1_" gradientUnits="userSpaceOnUse" x1="-1405.9001" y1="2732.8076" x2="-1261.0527" y2="2821.679" gradientTransform="matrix(0.9688 0.248 -0.248 0.9688 2180.2883 -2120.4531)">
			<stop  offset="0" style="stop-color:#F1C13B"/>
			<stop  offset="1" style="stop-color:#FF1200"/>
		</linearGradient>
		<path class="st1" d="M227.5,253.7l-68.9-94.1c-6.8-7.8-20.6-7-30.8,1.8l-2.6,2.2c-10.2,8.8-12.9,22.4-6.2,30.2l51.3,52.7
			c1.1,1.1,2.9,0.2,2.7-1.3l-0.8-5l82.2,73.1c1.4,1.2,3.3-0.5,2.4-2l-36.6-58l5.2,2.7C227,256.8,228.5,255,227.5,253.7z"/>
		<g class="st2">
			<g>
				<path class="st3" d="M155.7,164.5c-6.8-7.8-20.6-7-30.8,1.8l-2.6,2.2c-1.8,1.5-3.2,3.2-4.5,5c1.7-3.6,4.1-7,7.5-9.9l2.6-2.2
					c10.2-8.8,24-9.6,30.8-1.8l68.2,93.1c1.2,1.6-0.6,3.7-2.4,2.7l-3.6-1.9L155.7,164.5z"/>
				<path class="st3" d="M249,308.4l-31.7-50.2l9.1,4.8l30.3,48c1,1.6-1,3.3-2.4,2.1L249,308.4z"/>
			</g>
		</g>
	</g>
	<g>
		<path class="st4" d="M116.8,193.8c-2.1,1.6-5,1.1-6.6-0.9l-5.4-7.2c-10.6-14.1-7.8-34.1,6.3-44.8l0,0c14.1-10.6,34.1-7.8,44.8,6.3
			l5.4,7.2c1.6,2.1,1.1,5-0.9,6.6L116.8,193.8z"/>
		<path class="st5" d="M111.7,192.6l48.9-36.8c1.8-1.4,2.2-3.9,0.8-5.7l0,0c-1.4-1.8-3.9-2.2-5.7-0.8l-48.9,36.8
			c-1.8,1.4-2.2,3.9-0.8,5.7l0,0C107.3,193.6,109.9,193.9,111.7,192.6z"/>
		
			<rect x="39.7" y="32.8" transform="matrix(0.7986 -0.6019 0.6019 0.7986 -43.1055 66.1924)" class="st6" width="75.2" height="129.3"/>
		<path class="st5" d="M3.5,20c0,0-1.9-7.7,5.4-13.2c7.4-5.6,14.2-1.6,14.2-1.6l45.2,18l-30,22.6l-30,22.6L3.5,20z"/>
		<path class="st5" d="M79.3,176.8c1.5,2,4.4,2.4,6.4,0.9l66.4-50c2-1.5,2.4-4.4,0.9-6.4l0,0c-1.5-2-4.4-2.4-6.4-0.9l-66.4,50
			C78.2,171.9,77.7,174.8,79.3,176.8L79.3,176.8z"/>
		
			<ellipse transform="matrix(0.7986 -0.6019 0.6019 0.7986 -36.6641 56.8736)" class="st5" cx="66.6" cy="83.2" rx="26.5" ry="26.5"/>
		
			<rect x="67.2" y="129.9" transform="matrix(0.7986 -0.6019 0.6019 0.7986 -59.5374 90.0862)" class="st5" width="75.2" height="8.1"/>
		<g>
			<path class="st4" d="M102.6,68.5l46.5,5.1c0,0,9.3,0.5,16.1,9.5l27.9,37.1l-40.8-11.3c0,0-7.8-2.1-16.1,4.2L102.6,68.5z"/>
			<path class="st5" d="M190.8,130.8L190.8,130.8c3.6-2.7,4.4-7.9,1.6-11.5L164.3,82c0,0-5.4-7.2-16.7-8.6L190.8,130.8z"/>
			<g>
				<path class="st5" d="M124.4,70.9l28.9,38.3l-0.9-0.2c0,0-1.4-0.3-3.7-0.3l-28.8-38.2L124.4,70.9z"/>
			</g>
		</g>
		<g>
			<path class="st4" d="M42.6,113.8l-7.9,46.1c0,0-2.1,9.1,4.7,18.1l27.9,37.1l0.4-42.4c0,0,0.1-8.1,8.5-14.3L42.6,113.8z"/>
			<path class="st5" d="M78.1,215.7L78.1,215.7c-3.6,2.7-8.8,2-11.5-1.6l-28.1-37.3c0,0-5.4-7.2-3.7-18.4L78.1,215.7z"/>
			<g>
				<path class="st5" d="M39.6,130.7L68.5,169c-0.7,2.2-0.8,3.7-0.8,3.7v0.7l-28.8-38.2L39.6,130.7z"/>
			</g>
		</g>
		<path class="st7" d="M48.4,93.5c7,12.2,23.6,14.3,33.4,4c5.7-6,7.3-15.1,3.9-22.7c-5.9-13.1-22.2-16.3-32.6-7.5
			C45.6,73.7,43.5,85,48.4,93.5z"/>
		<path class="st8" d="M63.1,67.3c-0.5,0.1-1,0.2-1.5,0.4"/>
		<path class="st8" d="M76.4,70.1c-3.2-2.4-7.1-3.5-11-3.2"/>
	</g>
</g>
</svg>
