<?xml version="1.0" encoding="utf-8"?>
<!-- Generator: Adobe Illustrator 21.0.0, SVG Export Plug-In . SVG Version: 6.00 Build 0)  -->
<svg version="1.1" id="Isolation_Mode" xmlns="http://www.w3.org/2000/svg" xmlns:xlink="http://www.w3.org/1999/xlink" x="0px"
	 y="0px" viewBox="0 0 344.7 413.8" style="enable-background:new 0 0 344.7 413.8;" xml:space="preserve">
<style type="text/css">
	.st0{opacity:6.000000e-02;fill:#FFFFFF;}
	.st1{fill:url(#SVGID_1_);}
	.st2{opacity:0.15;}
	.st3{fill:#230753;}
	.st4{fill:#DDDDDD;}
	.st5{fill:#FF1200;}
	.st6{fill:#F4F2ED;}
	.st7{fill:#040028;}
	.st8{fill:none;stroke:#F4F2ED;stroke-width:0.3;stroke-linecap:round;stroke-linejoin:round;stroke-miterlimit:10;}
</style>
<g>
	<g>
		<path class="st0" d="M56.1,302.4l123.3-168.9c12-13.9,36.9-12.2,55.3,3.7l4.6,4c18.4,15.9,23.6,40.3,11.6,54.2L158.6,290
			c-1.6,1.7-4.5,0.3-4.2-2.1l1.5-10.3L7.4,409.3c-2.1,1.9-5.2-0.7-3.7-3.1L70,300.4L59.2,306C56.9,307.2,54.6,304.5,56.1,302.4z"/>
		<path class="st0" d="M74.5,291.5l108.2-146c10.5-12.1,31-11.6,45.7,1l3.7,3.2c14.6,12.7,18,33,7.5,45.1l-79.8,82.6
			c-1.4,1.5-3.9,0.2-3.5-1.8l1.5-8.2L30.5,382.9c-1.8,1.6-4.4-0.6-3.1-2.6l58.5-90.5l-8.7,4.8C75.3,295.6,73.2,293.3,74.5,291.5z"/>
		
			<linearGradient id="SVGID_1_" gradientUnits="userSpaceOnUse" x1="745.1258" y1="372.7686" x2="889.9732" y2="283.8971" gradientTransform="matrix(-0.9688 0.248 -0.248 -0.9688 1018.5078 354.7478)">
			<stop  offset="0" style="stop-color:#F1C13B"/>
			<stop  offset="1" style="stop-color:#FF1200"/>
		</linearGradient>
		<path class="st1" d="M117.2,253.7l68.9-94.1c6.8-7.8,20.6-7,30.8,1.8l2.6,2.2c10.2,8.8,12.9,22.4,6.2,30.2l-51.3,52.7
			c-1.1,1.1-2.9,0.2-2.7-1.3l0.8-5l-82.2,73.1c-1.4,1.2-3.3-0.5-2.4-2l36.6-58l-5.2,2.7C117.7,256.8,116.2,255,117.2,253.7z"/>
		<g class="st2">
			<g>
				<path class="st3" d="M189,164.5c6.8-7.8,20.6-7,30.8,1.8l2.6,2.2c1.8,1.5,3.2,3.2,4.5,5c-1.7-3.6-4.1-7-7.5-9.9l-2.6-2.2
					c-10.2-8.8-24-9.6-30.8-1.8l-68.2,93.1c-1.2,1.6,0.6,3.7,2.4,2.7l3.6-1.9L189,164.5z"/>
				<path class="st3" d="M95.7,308.4l31.7-50.2l-9.1,4.8L88,311c-1,1.6,1,3.3,2.4,2.1L95.7,308.4z"/>
			</g>
		</g>
	</g>
	<g>
		<path class="st4" d="M227.9,193.8c2.1,1.6,5,1.1,6.6-0.9l5.4-7.2c10.6-14.1,7.8-34.1-6.3-44.8l0,0c-14.1-10.6-34.1-7.8-44.8,6.3
			l-5.4,7.2c-1.6,2.1-1.1,5,0.9,6.6L227.9,193.8z"/>
		<path class="st5" d="M233,192.6l-48.9-36.8c-1.8-1.4-2.2-3.9-0.8-5.7l0,0c1.4-1.8,3.9-2.2,5.7-0.8l48.9,36.8
			c1.8,1.4,2.2,3.9,0.8,5.7l0,0C237.4,193.6,234.8,193.9,233,192.6z"/>
		
			<rect x="202.7" y="59.9" transform="matrix(0.6019 -0.7986 0.7986 0.6019 28.5988 252.3214)" class="st6" width="129.3" height="75.2"/>
		<path class="st5" d="M341.2,20c0,0,1.9-7.7-5.4-13.2c-7.4-5.6-14.2-1.6-14.2-1.6l-45.2,18l30,22.6l30,22.6L341.2,20z"/>
		<path class="st5" d="M265.4,176.8c-1.5,2-4.4,2.4-6.4,0.9l-66.4-50c-2-1.5-2.4-4.4-0.9-6.4l0,0c1.5-2,4.4-2.4,6.4-0.9l66.4,50
			C266.5,171.9,267,174.8,265.4,176.8L265.4,176.8z"/>
		
			<ellipse transform="matrix(0.6019 -0.7986 0.7986 0.6019 44.2512 255.2299)" class="st5" cx="278.1" cy="83.2" rx="26.5" ry="26.5"/>
		
			<rect x="235.8" y="96.4" transform="matrix(0.6019 -0.7986 0.7986 0.6019 -11.4821 244.8887)" class="st5" width="8.1" height="75.2"/>
		<g>
			<path class="st4" d="M242.1,68.5l-46.5,5.1c0,0-9.3,0.5-16.1,9.5l-27.9,37.1l40.8-11.3c0,0,7.8-2.1,16.1,4.2L242.1,68.5z"/>
			<path class="st5" d="M153.9,130.8L153.9,130.8c-3.6-2.7-4.4-7.9-1.6-11.5L180.4,82c0,0,5.4-7.2,16.7-8.6L153.9,130.8z"/>
			<g>
				<path class="st5" d="M220.3,70.9l-28.9,38.3l0.9-0.2c0,0,1.4-0.3,3.7-0.3l28.8-38.2L220.3,70.9z"/>
			</g>
		</g>
		<g>
			<path class="st4" d="M302.1,113.8l7.9,46.1c0,0,2.1,9.1-4.7,18.1l-27.9,37.1l-0.4-42.4c0,0-0.1-8.1-8.5-14.3L302.1,113.8z"/>
			<path class="st5" d="M266.6,215.7L266.6,215.7c3.6,2.7,8.8,2,11.5-1.6l28.1-37.3c0,0,5.4-7.2,3.7-18.4L266.6,215.7z"/>
			<g>
				<path class="st5" d="M305.1,130.7L276.2,169c0.7,2.2,0.8,3.7,0.8,3.7l0,0.7l28.8-38.2L305.1,130.7z"/>
			</g>
		</g>
		<path class="st7" d="M296.3,93.5c-7,12.2-23.6,14.3-33.4,4c-5.7-6-7.3-15.1-3.9-22.7c5.9-13.1,22.2-16.3,32.6-7.5
			C299.1,73.7,301.2,85,296.3,93.5z"/>
		<path class="st8" d="M281.6,67.3c0.5,0.1,1,0.2,1.5,0.4"/>
		<path class="st8" d="M268.3,70.1c3.2-2.4,7.1-3.5,11-3.2"/>
	</g>
</g>
</svg>
