<?xml version="1.0" encoding="utf-8"?>
<!-- Generator: Adobe Illustrator 21.0.0, SVG Export Plug-In . SVG Version: 6.00 Build 0)  -->
<svg version="1.1" xmlns="http://www.w3.org/2000/svg" xmlns:xlink="http://www.w3.org/1999/xlink" x="0px" y="0px"
	 viewBox="0 0 500 500" style="enable-background:new 0 0 500 500;" xml:space="preserve">
<style type="text/css">
	.st0{display:none;}
	.st1{display:inline;fill:#4B1E61;}
	.st2{fill:url(#SVGID_1_);}
	.st3{fill:url(#SVGID_2_);}
	.st4{fill:url(#SVGID_3_);}
	.st5{fill:url(#SVGID_4_);}
	.st6{fill:url(#SVGID_5_);}
	.st7{fill:#EC578E;}
	.st8{fill:#D94179;}
	.st9{opacity:0.37;fill:#BD2973;}
	
		.st10{opacity:0.36;fill:none;stroke:#BCE9F0;stroke-width:2.8548;stroke-linecap:round;stroke-miterlimit:10;stroke-dasharray:0,5.0752,40.9191,7.93;}
	.st11{opacity:0.83;}
	.st12{fill:none;stroke:url(#SVGID_6_);stroke-width:1.9032;stroke-linecap:round;stroke-miterlimit:10;}
	.st13{fill:url(#SVGID_7_);}
	.st14{fill:#FFFFFF;}
	.st15{fill:#D4E6E8;}
	.st16{fill:#57C8DA;}
	.st17{fill:#4196A3;}
	.st18{fill:#2C646D;}
	.st19{fill:#E0FFFF;}
	.st20{fill:#43B7C9;}
	.st21{fill:#2A808D;}
	
		.st22{opacity:0.67;fill:none;stroke:#BCE9F0;stroke-width:1.4516;stroke-linecap:round;stroke-miterlimit:10;stroke-dasharray:0,2.1774,40.041,7.7599;}
	
		.st23{opacity:0.67;fill:none;stroke:#BCE9F0;stroke-width:1.0887;stroke-linecap:round;stroke-miterlimit:10;stroke-dasharray:0,2.1774,40.041,7.7599;}
	.st24{opacity:0.41;}
	.st25{fill:#FADCED;}
	.st26{fill:#732854;}
	.st27{fill:#AD3C7E;}
	.st28{fill:#E751A7;}
	.st29{fill:#F5B9DC;}
	.st30{fill:#F096CA;}
	.st31{fill:#EC73B9;}
	.st32{fill:url(#SVGID_8_);}
	.st33{fill:url(#SVGID_9_);}
	.st34{fill:url(#SVGID_10_);}
	.st35{fill:url(#SVGID_11_);}
	.st36{fill:#FFFFFF;}
	.st37{fill:#FC009C;}


@-webkit-keyframes flicker /* Safari and Chrome */ {
  0% {
    fill:#FFFFFF;
  }
  50% {
    fill:#FC009C;
  }
  100% {
  	fill:#FFFFFF;
  }
}
@keyframes flicker {
  0% {
    fill:#FFFFFF;
  }
  50% {
    fill:#FC009C;
  }
  100% {
  	fill:#FFFFFF;
  }
}

.st36 {
  -webkit-animation: flicker 3s linear infinite;
  -moz-animation: flicker 3s linear infinite;
  -ms-animation: flicker 3s linear infinite;
  -o-animation: flicker 3s linear infinite;
  animation: flicker 3s linear infinite;
}

@-webkit-keyframes flicker2 /* Safari and Chrome */ {
  0% {
    fill:#FC009C;
  }
  50% {
    fill:#FFFFFF;
  }
  100% {
  	fill:#FC009C;
  }
}
@keyframes flicker {
  0% {
    fill:#FC009C;
  }
  50% {
    fill:#FFFFFF;
  }
  100% {
  	fill:#FC009C;
  }
}

.st37 {
  -webkit-animation: flicker2 3s linear infinite;
  -moz-animation: flicker2 3s linear infinite;
  -ms-animation: flicker2 3s linear infinite;
  -o-animation: flicker2 3s linear infinite;
  animation: flicker2 3s linear infinite;
}
</style>
<g id="BACKGROUND" class="st0">
	<rect class="st1" width="500" height="500"/>
</g>
<g id="OBJECTS">
	<g>
		<g>
			<g>
				<linearGradient id="SVGID_1_" gradientUnits="userSpaceOnUse" x1="138.6691" y1="346.0311" x2="375.4634" y2="109.2368">
					<stop  offset="0" style="stop-color:#4B1E61"/>
					<stop  offset="0.2631" style="stop-color:#4E2063"/>
					<stop  offset="0.4699" style="stop-color:#58276B"/>
					<stop  offset="0.6574" style="stop-color:#693277"/>
					<stop  offset="0.8325" style="stop-color:#804188"/>
					<stop  offset="1" style="stop-color:#9E559E"/>
				</linearGradient>
				<circle class="st2" cx="257.1" cy="227.6" r="167.4"/>
			</g>
			<g>
				
					<linearGradient id="SVGID_2_" gradientUnits="userSpaceOnUse" x1="303.4925" y1="349.7549" x2="331.4056" y2="278.3358" gradientTransform="matrix(-0.9989 4.650000e-02 4.650000e-02 0.9989 663.7587 5.7303)">
					<stop  offset="0" style="stop-color:#4B1E61"/>
					<stop  offset="0.1286" style="stop-color:#511E62"/>
					<stop  offset="0.3001" style="stop-color:#622064"/>
					<stop  offset="0.4958" style="stop-color:#7E2268"/>
					<stop  offset="0.7095" style="stop-color:#A4246D"/>
					<stop  offset="0.9352" style="stop-color:#D52874"/>
					<stop  offset="1" style="stop-color:#E52976"/>
				</linearGradient>
				<path class="st3" d="M288.3,343.9c-0.2-4.3,3.2-8,7.5-8.2c3.2-0.1,6.1,1.7,7.4,4.4c2.1-1.1,4.5-1.8,7-1.9c2.5-0.1,4.9,0.3,7,1.2
					c1.6-2.8,3.9-5.1,6.6-6.8c-0.3-0.8-0.5-1.6-0.5-2.5c-0.2-4.2,3-7.8,7.1-8.2c-0.1-0.7-0.2-1.5-0.2-2.3
					c-0.5-10.7,7.8-19.8,18.5-20.3c6.9-0.3,13.1,3,16.8,8.2c1.2-0.9,2.7-1.5,4.4-1.5c3.8-0.2,7.1,2.3,8.1,5.7c0.7-0.2,1.3-0.3,2-0.4
					c-1.8-1.5-3-3.8-3.2-6.3c-0.2-4.8,3.5-8.9,8.3-9.1c4.8-0.2,8.9,3.5,9.1,8.3c0,0.5,0,0.9,0,1.4c3.7-2.4,8-3.8,12.7-4.1
					c14.2-0.7,26.2,10.3,26.9,24.5c0.7,14.2-10.3,26.2-24.5,26.9c-2.9,0.1-5.7-0.2-8.4-1c-4.1,4.1-9.6,6.7-15.9,7
					c-13.2,0.6-24.4-9.6-25-22.8c0-0.3,0-0.7,0-1c-2.5,1.6-5.5,2.7-8.7,3c2.1,3,3.5,6.7,3.7,10.7c0.5,11.2-8.1,20.7-19.3,21.2
					c-4.5,0.2-8.7-1.1-12.1-3.4c-2.9,3.2-7.1,5.3-11.7,5.5c-9.4,0.4-17.3-6.8-17.7-16.2c-0.1-1.6,0.1-3.2,0.4-4.6
					C291.1,350.5,288.5,347.6,288.3,343.9z"/>
			</g>
			<g>
				<linearGradient id="SVGID_3_" gradientUnits="userSpaceOnUse" x1="146.4501" y1="395.2773" x2="212.4339" y2="280.99">
					<stop  offset="0" style="stop-color:#4B1E61"/>
					<stop  offset="0.1399" style="stop-color:#501E62"/>
					<stop  offset="0.3047" style="stop-color:#5E1F64"/>
					<stop  offset="0.4822" style="stop-color:#762167"/>
					<stop  offset="0.6685" style="stop-color:#97236B"/>
					<stop  offset="0.8598" style="stop-color:#C12671"/>
					<stop  offset="1" style="stop-color:#E52976"/>
				</linearGradient>
				<path class="st4" d="M296.3,343.2c0-6.8-5.5-12.4-12.4-12.4c-5.1,0-9.4,3.1-11.3,7.4c-3.4-1.6-7.2-2.5-11.2-2.5
					c-3.9,0-7.6,0.8-11,2.4c-2.8-4.2-6.5-7.7-10.9-10.2c0.4-1.2,0.6-2.6,0.6-4c0-6.6-5.2-12.1-11.8-12.4c0.1-1.2,0.2-2.4,0.2-3.6
					c0-16.9-13.7-30.6-30.6-30.6c-10.9,0-20.4,5.7-25.8,14.2c-2-1.3-4.4-2.1-7-2.1c-5.9,0-10.9,4.1-12.3,9.6
					c-1.1-0.2-2.1-0.4-3.2-0.5c2.8-2.5,4.5-6.2,4.5-10.2c0-7.6-6.2-13.8-13.8-13.8c-7.6,0-13.8,6.2-13.8,13.8c0,0.7,0.1,1.4,0.2,2.1
					c-6-3.5-12.9-5.4-20.3-5.4c-22.3,0-40.5,18.1-40.5,40.5c0,22.3,18.1,40.5,40.5,40.5c4.6,0,9-0.8,13.1-2.2
					c6.7,6.1,15.6,9.9,25.4,9.9c20.8,0,37.7-16.9,37.7-37.7c0-0.5,0-1,0-1.6c4.1,2.4,8.8,3.8,13.8,4c-3.1,4.9-5,10.8-5,17.1
					c0,17.6,14.3,31.9,31.9,31.9c7,0,13.6-2.3,18.8-6.2c4.8,4.8,11.5,7.8,18.9,7.8c14.7,0,26.7-12,26.7-26.7c0-2.5-0.4-5-1-7.3
					C292.4,353.8,296.3,349,296.3,343.2z"/>
			</g>
			<g>
				<linearGradient id="SVGID_4_" gradientUnits="userSpaceOnUse" x1="157.8475" y1="421.7228" x2="214.3628" y2="323.8355">
					<stop  offset="0" style="stop-color:#4B1E61"/>
					<stop  offset="0.1457" style="stop-color:#5A1F63"/>
					<stop  offset="0.428" style="stop-color:#832269"/>
					<stop  offset="0.8154" style="stop-color:#C42771"/>
					<stop  offset="1" style="stop-color:#E52976"/>
				</linearGradient>
				<path class="st5" d="M286.2,377.1c0-5.9-4.7-10.6-10.6-10.6c-4.3,0-8.1,2.6-9.7,6.4c-2.9-1.4-6.2-2.1-9.6-2.1
					c-3.4,0-6.5,0.7-9.4,2c-2.4-3.6-5.6-6.6-9.3-8.8c0.4-1.1,0.6-2.2,0.6-3.4c0-5.7-4.5-10.3-10.1-10.6c0.1-1,0.2-2,0.2-3.1
					c0-14.5-11.7-26.2-26.2-26.2c-9.3,0-17.5,4.9-22.1,12.2c-1.7-1.1-3.8-1.8-6-1.8c-5.1,0-9.4,3.5-10.5,8.2
					c-0.9-0.2-1.8-0.3-2.8-0.5c2.4-2.2,3.9-5.3,3.9-8.7c0-6.5-5.3-11.8-11.8-11.8c-6.5,0-11.8,5.3-11.8,11.8c0,0.6,0,1.2,0.1,1.8
					c-5.1-3-11-4.7-17.4-4.7c-19.1,0-34.7,15.5-34.7,34.7c0,19.1,15.5,34.7,34.7,34.7c3.9,0,7.7-0.7,11.2-1.9
					c5.7,5.3,13.4,8.5,21.8,8.5c17.8,0,32.3-14.5,32.3-32.3c0-0.4,0-0.9,0-1.3c3.5,2,7.5,3.2,11.8,3.4c-2.7,4.2-4.3,9.3-4.3,14.6
					c0,15.1,12.2,27.3,27.3,27.3c6,0,11.6-2,16.1-5.3c4.1,4.1,9.8,6.7,16.2,6.7c12.6,0,22.9-10.2,22.9-22.9c0-2.2-0.3-4.3-0.9-6.2
					C282.8,386.2,286.2,382,286.2,377.1z"/>
			</g>
			<g>
				
					<linearGradient id="SVGID_5_" gradientUnits="userSpaceOnUse" x1="360.3129" y1="390.9745" x2="388.2255" y2="319.5566" gradientTransform="matrix(0.9314 -0.364 0.364 0.9314 -121.7048 172.897)">
					<stop  offset="0" style="stop-color:#4B1E61"/>
					<stop  offset="1" style="stop-color:#E52976"/>
				</linearGradient>
				<path class="st6" d="M426.8,346.8c-1.6-4-6.1-6-10.2-4.5c-3,1.2-4.9,4-5,7c-2.4-0.1-4.8,0.2-7.2,1.1c-2.3,0.9-4.3,2.3-5.9,3.9
					c-2.6-1.9-5.6-3.1-8.8-3.6c0-0.8-0.2-1.7-0.5-2.5c-1.5-3.9-5.9-5.9-9.8-4.6c-0.2-0.7-0.4-1.5-0.7-2.2c-3.9-10-15.2-14.9-25.1-11
					c-6.4,2.5-10.7,8.1-12,14.4c-1.5-0.3-3.1-0.2-4.6,0.4c-3.5,1.4-5.5,5-5,8.5c-0.7,0.1-1.4,0.3-2,0.4c1.1-2.1,1.2-4.7,0.3-7.1
					c-1.8-4.5-6.8-6.7-11.3-5c-4.5,1.8-6.7,6.8-5,11.3c0.2,0.4,0.4,0.8,0.6,1.2c-4.3-0.7-8.9-0.2-13.2,1.5
					c-13.2,5.2-19.8,20.1-14.6,33.3c5.2,13.2,20.1,19.8,33.3,14.6c2.7-1.1,5.1-2.5,7.2-4.3c5.4,2.1,11.5,2.2,17.3,0
					c12.3-4.8,18.4-18.7,13.6-31c-0.1-0.3-0.3-0.6-0.4-0.9c3,0.4,6.1,0.2,9.1-0.8c-0.7,3.7-0.4,7.5,1,11.3
					c4.1,10.4,15.8,15.6,26.3,11.5c4.2-1.6,7.5-4.5,9.7-8c4,1.7,8.6,2,13,0.3c8.7-3.4,13-13.2,9.6-22c-0.6-1.5-1.4-2.9-2.3-4.1
					C427,353.9,428.2,350.2,426.8,346.8z"/>
			</g>
			<g>
				<g>
					<g>
						<path class="st7" d="M291.9,109.6c-8.8-7.8-22.3-7.2-30.7,1.2l-1.7,1.7c-1.4,1.4-3.6,1.4-4.9,0l-1.7-1.7
							c-8.3-8.3-21.9-9-30.7-1.2c-9.6,8.5-9.9,23.4-1,32.3l4.5,4.5l24.7,24.7c3.7,3.7,9.7,3.7,13.4,0l24.7-24.7l4.5-4.5
							C301.9,133,301.5,118.1,291.9,109.6z"/>
					</g>
					<g>
						<g>
							<g>
								<circle class="st8" cx="283.3" cy="149.2" r="1.4"/>
							</g>
							<g>
								<circle class="st8" cx="276.4" cy="113.6" r="1.4"/>
							</g>
							<g>
								<path class="st8" d="M273.5,159.3h-30.7c-0.8,0-1.5-0.7-1.5-1.5c0-0.8,0.7-1.5,1.5-1.5h18.5c0.8,0,1.5-0.7,1.5-1.5
									s-0.7-1.5-1.5-1.5h-12.6c-0.8,0-1.5-0.7-1.5-1.5c0-0.8,0.7-1.5,1.5-1.5h25.7c0.8,0,1.5-0.7,1.5-1.5s-0.7-1.5-1.5-1.5h-35.7
									c-0.8,0-1.5-0.7-1.5-1.5c0-0.8,0.7-1.5,1.5-1.5h20.1c0.8,0,1.5-0.7,1.5-1.5s-0.7-1.5-1.5-1.5h-10c-0.8,0-1.5-0.7-1.5-1.5
									c0-0.7,0.5-1.3,1.1-1.4h20.5c0.8,0,1.5-0.7,1.5-1.5c0,0,0,0,0,0c0,0,0,0,0,0c0-0.8-0.7-1.5-1.5-1.5h-20.5
									c-0.6-0.2-1.1-0.7-1.1-1.4c0-0.8,0.7-1.5,1.5-1.5h24.8c0.8,0,1.5-0.7,1.5-1.5c0-0.8-0.7-1.5-1.5-1.5H244
									c-0.8,0-1.5-0.7-1.5-1.5s0.7-1.5,1.5-1.5h17c0.8,0,1.5-0.7,1.5-1.5c0-0.8-0.7-1.5-1.5-1.5h-18.2c-0.8,0-1.5-0.7-1.5-1.5
									s0.7-1.5,1.5-1.5h22.6c0.8,0,1.5-0.7,1.5-1.5c0-0.8-0.7-1.5-1.5-1.5h-16.7c-0.8,0-1.5-0.7-1.5-1.5s0.7-1.5,1.5-1.5h11.5
									c0.8,0,1.5-0.7,1.5-1.5c0-0.8-0.7-1.5-1.5-1.5h-0.4l-0.2,0.2c-1.4,1.4-3.6,1.4-4.9,0l-0.2-0.2h-15.7c-0.8,0-1.5-0.7-1.5-1.5
									s0.7-1.5,1.5-1.5h12.7c-8.4-7-20.8-7.1-29.1,0.3c-9.6,8.5-9.9,23.4-1,32.3l4.5,4.5l16.9,16.9c0.2-0.6,0.7-1.1,1.4-1.1h28.7
									l2.1-2.1C274.5,159.6,274,159.3,273.5,159.3z"/>
							</g>
							<g>
								<path class="st8" d="M272.3,137.3c0,0.8,0.7,1.4,1.4,1.4h3.8c0.8,0,1.4-0.7,1.4-1.4c0-0.8-0.7-1.4-1.4-1.4h-3.8
									C273,135.9,272.3,136.5,272.3,137.3z"/>
							</g>
							<g>
								<path class="st8" d="M276.7,107.8c0,0.8,0.7,1.4,1.4,1.4h3.8c0.8,0,1.4-0.7,1.4-1.4c0-0.8-0.7-1.4-1.4-1.4h-3.8
									C277.3,106.3,276.7,107,276.7,107.8z"/>
							</g>
							<g>
								<path class="st8" d="M265.1,165.1c-0.8,0-1.4,0.7-1.4,1.4c0,0.8,0.7,1.4,1.4,1.4h1.8l2.7-2.7c-0.2-0.1-0.4-0.2-0.7-0.2
									H265.1z"/>
							</g>
							<g>
								<path class="st8" d="M286.8,106.3c-0.8,0-1.4,0.7-1.4,1.4c0,0.8,0.7,1.4,1.4,1.4c0.8,0,1.4-0.7,1.4-1.4c0-0.4-0.2-0.7-0.4-1
									c-0.3-0.1-0.5-0.3-0.8-0.4C287,106.3,286.9,106.3,286.8,106.3z"/>
							</g>
							<g>
								<path class="st8" d="M260.2,166.6c0-0.8-0.7-1.5-1.5-1.5h-14.3l3.3,3.3c0.3-0.2,0.6-0.4,0.9-0.4h10
									C259.5,168.1,260.2,167.4,260.2,166.6z"/>
							</g>
							<g>
								<path class="st8" d="M250.3,171L250.3,171c3.8,3.8,9.8,3.8,13.5,0.1l0.1-0.1H250.3z"/>
							</g>
							<g>
								<circle class="st8" cx="262.5" cy="143.1" r="1.4"/>
							</g>
							<g>
								<path class="st8" d="M266.8,124c-0.8,0-1.4,0.7-1.4,1.4c0,0.8,0.7,1.4,1.4,1.4h3.8c0.8,0,1.4-0.7,1.4-1.4
									c0-0.8-0.7-1.4-1.4-1.4H266.8z"/>
							</g>
							<g>
								<circle class="st8" cx="263.6" cy="113.6" r="1.4"/>
							</g>
							<g>
								<path class="st8" d="M272.9,113.6c0-0.8-0.7-1.4-1.4-1.4h-3.8c-0.8,0-1.4,0.7-1.4,1.4c0,0.8,0.7,1.4,1.4,1.4h3.8
									C272.3,115,272.9,114.4,272.9,113.6z"/>
							</g>
							<g>
								<path class="st8" d="M266.2,153.5c-0.8,0-1.4,0.7-1.4,1.4c0,0.8,0.7,1.4,1.4,1.4h3.8c0.8,0,1.4-0.7,1.4-1.4
									c0-0.8-0.7-1.4-1.4-1.4H266.2z"/>
							</g>
							<g>
								<circle class="st8" cx="278.1" cy="131.2" r="1.4"/>
							</g>
							<g>
								<circle class="st8" cx="278.1" cy="119.6" r="1.4"/>
							</g>
							<g>
								<path class="st8" d="M273.5,109.4c0.8,0,1.5-0.7,1.5-1.5c0-0.8-0.7-1.5-1.5-1.5h-6.1c-1.6,0.8-3.1,1.8-4.5,2.9H273.5z"/>
							</g>
							<g>
								<path class="st8" d="M274.6,119.6c0-0.8-0.7-1.4-1.4-1.4h-3.8c-0.8,0-1.4,0.7-1.4,1.4c0,0.8,0.7,1.4,1.4,1.4h3.8
									C274,121.1,274.6,120.4,274.6,119.6z"/>
							</g>
						</g>
					</g>
					<path class="st9" d="M278.7,153.3c-3.7,3.7-9.7,3.7-13.4,0l-24.7-24.7l-4.5-4.5c-5.1-5.1-7.2-12.2-6.2-19
						c-2.8,0.9-5.4,2.4-7.7,4.4c-9.6,8.5-9.9,23.4-1,32.3l4.5,4.5l24.7,24.7c3.7,3.7,9.7,3.7,13.4,0l24.7-24.7l4.5-4.5
						c2.3-2.3,4-5,5.1-7.9L278.7,153.3z"/>
					<path class="st10" d="M275.6,108.8c0,0,16.2-2.5,19.7,15.5"/>
					<g class="st11">
						
							<image style="overflow:visible;" width="158" height="142" xlink:href="C559F80AB3E2093F.png"  transform="matrix(1 0 0 1 178 68)">
						</image>
					</g>
				</g>
				<linearGradient id="SVGID_6_" gradientUnits="userSpaceOnUse" x1="246.9541" y1="174.2665" x2="277.4614" y2="96.7591">
					<stop  offset="0" style="stop-color:#4B1E61"/>
					<stop  offset="0.2046" style="stop-color:#4E1E61"/>
					<stop  offset="0.3654" style="stop-color:#581F63"/>
					<stop  offset="0.5113" style="stop-color:#692065"/>
					<stop  offset="0.6483" style="stop-color:#802268"/>
					<stop  offset="0.7793" style="stop-color:#9E246C"/>
					<stop  offset="0.9038" style="stop-color:#C32771"/>
					<stop  offset="1" style="stop-color:#E52976"/>
				</linearGradient>
				<path class="st12" d="M296,113.9c11.1-3,17.2-3.4,18.3-1c2,4.6-19.7,18.4-48.5,30.9c-28.8,12.5-53.7,18.9-55.7,14.4
					c-1-2.3,4-7,13-12.7"/>
				<g>
					<g>
						<linearGradient id="SVGID_7_" gradientUnits="userSpaceOnUse" x1="310.4797" y1="115.1791" x2="316.7022" y2="108.9566">
							<stop  offset="0" style="stop-color:#4B1E61"/>
							<stop  offset="1" style="stop-color:#E52976"/>
						</linearGradient>
						<circle class="st13" cx="313.6" cy="112.1" r="4.4"/>
					</g>
					<g>
						
							<image style="overflow:visible;" width="81" height="82" xlink:href="C559F80AB3E2093A.png"  transform="matrix(1 0 0 1 273 71)">
						</image>
					</g>
				</g>
			</g>
			<g>
				<g>
					<path class="st14" d="M234.3,250.2c-0.3,0-0.6,0-0.9,0c-2.3-0.1-6.2-1.1-13.9-7.8c-3.8-3.3-6.8-6.5-6.9-6.6
						c-1.9-2.1-1.8-5.3,0.2-7.2c2-1.9,5.3-1.8,7.2,0.2l0,0c4.8,5.1,10.9,10.1,13.5,11c1.7-1,5.5-3.8,8.1-5.8
						c2.8-2.1,5.7-4.3,8.3-6.1c2.3-1.5,5.5-0.9,7,1.4c1.5,2.3,0.9,5.5-1.4,7c-2.4,1.6-5.1,3.7-7.8,5.7
						C240.9,247.4,237.4,250,234.3,250.2z M232.9,240.2L232.9,240.2L232.9,240.2z"/>
				</g>
				<path class="st15" d="M256.5,231c-2.4,1.6-5.1,3.7-7.8,5.7c-6.8,5.2-10.3,7.7-13.4,8c-0.3,0-0.6,0-0.9,0
					c-2.3-0.1-6.2-1.1-13.9-7.8c-3.8-3.3-6.8-6.5-6.9-6.6c-0.4-0.4-0.7-0.9-1-1.5c-1.9,1.9-2,5-0.1,7c0.1,0.1,3.1,3.3,6.9,6.6
					c7.7,6.7,11.6,7.6,13.9,7.8c0.3,0,0.6,0,0.9,0c3.1-0.3,6.6-2.8,13.4-8c2.7-2,5.4-4.1,7.8-5.7c2.1-1.4,2.8-4,1.9-6.2
					C257.1,230.6,256.8,230.8,256.5,231z"/>
				<g>
					<path class="st16" d="M264.7,226.3l-5.6,9c-1.4,2.2-4.3,2.9-6.5,1.5l-2.2-1.3c-2.2-1.4-2.9-4.3-1.5-6.5l5.6-9
						c1.4-2.2,4.3-2.9,6.5-1.5l2.2,1.3C265.4,221.2,266.1,224.1,264.7,226.3z"/>
					<path class="st17" d="M253.7,223.9l-2,7c-0.4,1.3-1.7,2-2.9,1.6l0,0c-1.3-0.4-2-1.7-1.6-2.9l2.1-7c0.4-1.3,1.7-2,2.9-1.6l0,0
						C253.4,221.3,254.1,222.6,253.7,223.9z"/>
				</g>
				<g>
					<path class="st14" d="M221.1,329.2c-2.2,0.2-4.4-1.1-5.2-3.3c-1-2.6,0.4-5.6,3-6.5c5.8-2.1,11.6-7.7,13.9-13.5
						c0.9-2.2,1.6-5.3,0.3-7.9c-2.3-4.5-17-9.6-26.7-11.5c-2.8-0.5-4.5-3.2-4-6c0.5-2.8,3.2-4.5,6-4c0.3,0.1,6.9,1.4,14.1,3.9
						c10.7,3.7,17.2,8,19.7,13.1c2.3,4.7,2.3,10.4,0,16.2c-3.4,8.5-11.2,16.1-19.8,19.2C222,329.1,221.6,329.2,221.1,329.2z"/>
				</g>
				<path class="st15" d="M220.4,325.5c-1-2.6,0.4-5.6,3-6.5c5.8-2.1,11.6-7.7,13.9-13.5c0.9-2.2,1.6-5.3,0.3-7.9
					c-2.3-4.5-17-9.6-26.7-11.5c-2.8-0.5-4.5-3.2-4-6c0.3-1.5,1.2-2.7,2.5-3.4c-0.6-0.1-0.9-0.2-1-0.2c-2.8-0.5-5.4,1.3-6,4
					c-0.5,2.8,1.3,5.4,4,6c9.7,1.9,24.4,7,26.7,11.5c1.3,2.6,0.5,5.7-0.3,7.9c-2.3,5.8-8,11.3-13.9,13.5c-2.6,1-4,3.9-3,6.5
					c0.8,2.2,3,3.5,5.2,3.3c0.4,0,0.9-0.1,1.3-0.3c0.3-0.1,0.6-0.2,1-0.4C222.1,328,220.9,327,220.4,325.5z"/>
				<path class="st14" d="M200.1,290.2l-16.1,1.3c-8.2,0.7-15.4-5.5-16.1-13.7l0-0.1c-0.2-2.7,1.8-5.1,4.5-5.3l36.1-2.9
					c2.7-0.2,5.1,1.8,5.3,4.5l0,0.1C214.5,282.2,208.3,289.5,200.1,290.2z"/>
				<path class="st15" d="M211.3,270L211.3,270c0.7,8.2-5.5,15.4-13.7,16.1l-16.1,1.3c-4.8,0.4-9.4-1.6-12.4-5
					c2.5,5.7,8.4,9.5,14.9,9l16.1-1.3c8.2-0.7,14.3-7.9,13.7-16.1l0-0.1C213.7,272.2,212.7,270.8,211.3,270z"/>
				<path class="st16" d="M203.4,237.4l2.8,1.1c2.4,1,5.1-0.2,6-2.6l2.8-6.9c1-2.4-0.2-5.1-2.6-6l-2.8-1.1c-2.4-1-5.1,0.2-6,2.6
					l-2.8,6.9C199.9,233.7,201,236.4,203.4,237.4z"/>
				<path class="st17" d="M206.4,238.6l2.8,1.1c2.4,1,5.1-0.2,6-2.6l2.8-6.9c1-2.4-0.2-5.1-2.6-6l-2.8-1.1c-2.4-1-5.1,0.2-6,2.6
					l-2.8,6.9C202.9,234.9,204.1,237.6,206.4,238.6z"/>
				<path class="st18" d="M209.1,239.6l2.8,1.1c2.4,1,5.1-0.2,6-2.6l2.8-6.9c1-2.4-0.2-5.1-2.6-6l-2.8-1.1c-2.4-1-5.1,0.2-6,2.6
					l-2.8,6.9C205.6,236,206.7,238.7,209.1,239.6z"/>
				<path class="st14" d="M203.7,275.7l-24.7,2c-7,0.6-13.2-4.7-13.8-11.7l-2.4-29.1c-0.6-7,4.7-13.2,11.7-13.8l24.7-2
					c7-0.6,13.2,4.7,13.8,11.7l2.4,29.1C216,268.9,210.7,275.1,203.7,275.7z"/>
				<path class="st15" d="M200.3,221c0.2,0.8,0.4,1.6,0.5,2.5l2.4,29.1c0.6,7-4.7,13.2-11.7,13.8l-24.7,2c-0.4,0-0.7,0-1,0
					c1.7,5.7,7.2,9.7,13.4,9.2l24.7-2c7-0.6,12.3-6.8,11.7-13.8l-2.4-29.1C212.5,226.1,206.8,221,200.3,221z"/>
				
					<ellipse transform="matrix(8.129633e-02 -0.9967 0.9967 8.129633e-02 -2.1249 394.5733)" class="st19" cx="213" cy="198.4" rx="10.6" ry="6"/>
				
					<ellipse transform="matrix(8.129394e-02 -0.9967 0.9967 8.129394e-02 -20.3893 369.2033)" class="st14" cx="190.1" cy="195.7" rx="26.5" ry="26.5"/>
				<path class="st15" d="M205.3,174c2.8,4.6,4.3,10.1,3.8,15.9c-1.2,14.6-14,25.4-28.6,24.3c-4.9-0.4-9.4-2.1-13.1-4.8
					c4.3,7,11.7,11.9,20.5,12.6c14.6,1.2,27.4-9.7,28.6-24.3C217.3,188.1,212.7,179.2,205.3,174z"/>
				
					<ellipse transform="matrix(8.129703e-02 -0.9967 0.9967 8.129703e-02 -40.8956 344.9589)" class="st19" cx="166.7" cy="194.7" rx="10.6" ry="6"/>
				<path class="st15" d="M169.1,184.6c1.6,2,2.5,5.5,2.2,9.3c-0.5,5.8-3.5,10.3-6.8,10.1c-0.5,0-1.1-0.2-1.6-0.5
					c0.8,1,1.8,1.6,2.9,1.7c3.3,0.3,6.4-4.2,6.8-10.1C173,190.3,171.5,186,169.1,184.6z"/>
				<path class="st16" d="M182.9,204.9c-4.6-0.4-8.1-4.5-7.7-9.1l0.4-4.9c0.4-4.6,4.5-8.1,9.1-7.7l23.6,1.9c4.6,0.4,8.1,4.5,7.7,9.1
					l-0.4,4.9c-0.4,4.6-4.5,8.1-9.1,7.7L182.9,204.9z"/>
				<path class="st20" d="M210.9,185.8c0.3,1,0.5,2.2,0.4,3.3l-0.4,4.9c-0.4,4.6-4.5,8.1-9.1,7.7l-23.6-1.9
					c-0.9-0.1-1.8-0.3-2.7-0.7c1,3.1,3.9,5.5,7.3,5.8l23.6,1.9c4.6,0.4,8.7-3.1,9.1-7.7l0.4-4.9
					C216.3,190.5,214.2,187.2,210.9,185.8z"/>
				<path class="st21" d="M208.2,186.6c3.8,0.3,6.7,3.7,6.4,7.5l-0.4,4.9c-0.3,3.8-3.7,6.7-7.5,6.4l-23.6-1.9
					c-3.8-0.3-6.7-3.7-6.4-7.5l0.4-4.9c0.3-3.8,3.7-6.7,7.5-6.4L208.2,186.6 M208.4,183.7l-23.6-1.9c-5.4-0.4-10.2,3.6-10.7,9.1
					l-0.4,4.9c-0.4,5.4,3.6,10.2,9.1,10.7l23.6,1.9c5.4,0.4,10.2-3.6,10.7-9.1l0.4-4.9C217.9,188.9,213.8,184.1,208.4,183.7
					L208.4,183.7z"/>
				
					<ellipse transform="matrix(8.129556e-02 -0.9967 0.9967 8.129556e-02 -42.0759 343.4484)" class="st21" cx="165.3" cy="194.5" rx="7.6" ry="4.6"/>
				<polygon class="st14" points="202.4,192.1 202.5,190.8 201.3,190.7 200,190.6 198.8,190.5 198.7,191.8 197.4,191.7 197.3,192.9 
					196.1,192.8 196.2,191.6 194.9,191.5 195,190.2 193.8,190.1 192.5,190 191.3,189.9 191.2,191.2 189.9,191.1 189.8,192.3 
					189.7,193.6 189.6,194.8 190.8,194.9 190.7,196.2 192,196.3 191.9,197.5 193.1,197.6 193,198.9 194.3,199 194.2,200.2 
					195.4,200.3 195.3,201.6 196.6,201.7 196.7,200.4 197.9,200.5 198,199.3 199.3,199.4 199.4,198.1 200.6,198.2 200.7,197 
					202,197.1 202.1,195.8 203.3,195.9 203.4,194.7 203.5,193.5 203.6,192.2 				"/>
				<path class="st16" d="M205.6,219.7l-33.7-0.7c-1.1,0-2-1-2-2.1l0,0c0-1.1,1-2,2.1-2l33.7,0.7c1.1,0,2,1,2,2.1l0,0
					C207.7,218.8,206.7,219.7,205.6,219.7z"/>
				<path class="st17" d="M205.5,223.8l-33.7-0.7c-1.1,0-2-1-2-2.1l0,0c0-1.1,1-2,2.1-2l33.7,0.7c1.1,0,2,1,2,2.1l0,0
					C207.6,222.9,206.6,223.8,205.5,223.8z"/>
				<path class="st18" d="M205.4,227.9l-33.7-0.7c-1.1,0-2-1-2-2.1l0,0c0-1.1,1-2,2.1-2l33.7,0.7c1.1,0,2,1,2,2.1l0,0
					C207.5,227,206.6,227.9,205.4,227.9z"/>
				<path class="st22" d="M179.6,190.4c0,0-0.8-4.1,4.7-3.6c5.4,0.4,13.4,1.1,13.4,1.1"/>
				<path class="st16" d="M170.9,240l-2.6,1.6c-2.2,1.3-5,0.6-6.4-1.6l-3.9-6.4c-1.3-2.2-0.6-5,1.6-6.4l2.6-1.6
					c2.2-1.3,5-0.6,6.4,1.6l3.9,6.4C173.7,235.8,173,238.7,170.9,240z"/>
				<path class="st17" d="M168.1,241.7l-2.6,1.6c-2.2,1.3-5,0.6-6.4-1.6l-3.9-6.4c-1.3-2.2-0.6-5,1.6-6.4l2.6-1.6
					c2.2-1.3,5-0.6,6.4,1.6l3.9,6.4C171,237.5,170.3,240.4,168.1,241.7z"/>
				<path class="st18" d="M165.6,243.2l-2.6,1.6c-2.2,1.3-5,0.6-6.4-1.6l-3.9-6.4c-1.3-2.2-0.6-5,1.6-6.4l2.6-1.6
					c2.2-1.3,5-0.6,6.4,1.6l3.9,6.4C168.5,239,167.8,241.9,165.6,243.2z"/>
				<g>
					<path class="st14" d="M159.5,272.4c-0.7,0.1-1.4,0-2.1-0.3c-12-4.3-19.3-11.3-19.4-18.7c-0.1-4.2,2.9-8.6,9.4-13.9
						c4-3.3,8-5.8,8.1-5.9c2.4-1.5,5.5-0.8,7,1.6c1.5,2.4,0.8,5.5-1.6,7l0,0c-6,3.8-12,9.1-12.7,11.2c0.3,2,4.2,6.1,12.7,9.1
						c2.6,0.9,4,3.9,3.1,6.5C163.1,270.9,161.4,272.2,159.5,272.4z M148,253.5L148,253.5L148,253.5z"/>
				</g>
				<path class="st15" d="M160.8,262.5c-8.5-3-12.4-7.1-12.7-9.1c0.7-2.1,6.7-7.4,12.7-11.2c2.4-1.5,3.1-4.6,1.6-7
					c-1.3-2.1-3.9-2.9-6.1-2c1.3,0.3,2.5,1,3.3,2.3c1.5,2.4,0.8,5.5-1.6,7c-6,3.8-12,9.1-12.7,11.2c0.3,2,4.2,6.1,12.7,9.1
					c2.6,0.9,4,3.9,3.1,6.5c-0.5,1.5-1.6,2.5-3,3c0.5,0.1,0.9,0.1,1.4,0.1c1.9-0.2,3.7-1.4,4.4-3.3
					C164.8,266.4,163.4,263.5,160.8,262.5z"/>
				<g>
					<path class="st14" d="M167.5,329.1c-0.1,0-0.1,0-0.2,0c-9.2,0.7-19.4-3-26-9.3c-2-1.9-2.1-5.2-0.1-7.2c1.9-2,5.2-2.1,7.2-0.1
						c4.5,4.3,12,7,18.2,6.5c0,0,0.1,0,0.1,0c2.3-0.2,5.4-0.9,7.1-3.2c3.1-4,1.2-19.5-1.4-29c-0.7-2.7,0.9-5.5,3.6-6.2
						c2.7-0.7,5.5,0.9,6.2,3.6c0.1,0.3,1.8,6.8,2.8,14.4c1.4,11.3,0.4,19-3.1,23.5C178.7,326.1,173.6,328.6,167.5,329.1z"/>
				</g>
				<path class="st15" d="M176,280.5C176,280.5,176,280.5,176,280.5c-2.8,0.7-4.4,3.5-3.7,6.2c2.6,9.6,4.5,25,1.4,29
					c-1.7,2.3-4.8,3-7.1,3.2c0,0-0.1,0-0.1,0c-5.9,0.4-13-1.9-17.5-5.9c-1.4-0.6-2.7-1.3-3.9-2c-1.5-0.1-3,0.4-4,1.5
					c-1.9,2-1.9,5.2,0.1,7.2c0.8,0.7,1.6,1.4,2.4,2.1c5.4,2.6,11.6,3.9,17.4,3.4c0.1,0,0.1,0,0.2,0c6.1-0.5,11.2-3,14.4-7.1
					c3.5-4.5,4.5-12.2,3.1-23.5C177.9,287.7,176.3,281.7,176,280.5z"/>
				<g>
					<path class="st17" d="M170.6,268.7l-7-2c-1.3-0.4-2-1.7-1.6-2.9l0,0c0.4-1.3,1.7-2,2.9-1.6l7,2.1c1.3,0.4,2,1.7,1.6,2.9h0
						C173.2,268.3,171.9,269,170.6,268.7z"/>
					<path class="st16" d="M168.2,279.6l-9-5.6c-2.2-1.4-2.9-4.3-1.5-6.5l1.3-2.2c1.4-2.2,4.3-2.9,6.5-1.5l9,5.6
						c2.2,1.4,2.9,4.3,1.5,6.5l-1.3,2.2C173.3,280.3,170.4,281,168.2,279.6z"/>
				</g>
				<g>
					<path class="st16" d="M131.3,319.3L131.3,319.3c0.5-0.8,1.5-1.1,2.3-0.6l7.7,4.5c1.8,1,4.1,0.4,5.1-1.3l4.5-7.8
						c1-1.8,0.4-4.1-1.3-5.1l-12.9-7.5l-2.4-1.4l-3.2-1.9c-2.1-1.2-4.7-0.5-6,1.6l-10.2,17.6c-1.2,2-0.6,4.7,1.5,5.9
						C121.5,326.3,128.2,324.5,131.3,319.3z"/>
					<path class="st17" d="M139.1,302.9l-2.4-1.4l-2.4-1.4l-3.2-1.9c-1.6-0.9-3.5-0.7-4.8,0.3c-0.2,1.7,0.5,3.4,2,4.3
						C131.6,304.8,135.8,304.7,139.1,302.9z"/>
					<path class="st17" d="M116.3,323.2c5.1,3.1,11.8,1.4,14.9-3.7l-3.8-2.2l-2.4-1.4l-3.2-1.9c-2.1-1.2-4.7-0.5-6,1.6l-1,1.7
						C113.6,319.3,114.2,322,116.3,323.2z"/>
					<path class="st18" d="M112.6,318.8l12.7-21.7c0.5-0.9,1.7-1.2,2.6-0.7l0,0c0.9,0.5,1.2,1.7,0.7,2.6L116,320.8
						c-0.5,0.9-1.7,1.2-2.6,0.7l0,0C112.4,320.9,112.1,319.7,112.6,318.8z"/>
					<path class="st18" d="M138.4,321.4l8.2-14c0.2-0.3,0.6-0.5,1-0.3l0,0c0.3,0.2,0.5,0.6,0.3,1l-8.2,14c-0.2,0.3-0.6,0.5-1,0.3
						l0,0C138.3,322.2,138.2,321.8,138.4,321.4z"/>
					<path class="st18" d="M132.8,303.4L132.8,303.4c0.3-0.4,0.8-0.6,1.2-0.3l11.3,6.6c0.4,0.3,0.6,0.8,0.3,1.2l0,0
						c-0.3,0.4-0.8,0.6-1.2,0.3l-11.3-6.6C132.7,304.4,132.6,303.8,132.8,303.4z"/>
					
						<ellipse transform="matrix(0.5036 -0.8639 0.8639 0.5036 -196.1655 265.8531)" class="st18" cx="133.3" cy="303.6" rx="2.8" ry="2.8"/>
					
						<ellipse transform="matrix(0.5036 -0.8639 0.8639 0.5036 -196.1655 265.8523)" class="st14" cx="133.3" cy="303.6" rx="1.8" ry="1.8"/>
					<path class="st18" d="M135.6,320l2.6-4.4c0.2-0.3,0.5-0.4,0.8-0.2l0,0c0.3,0.2,0.4,0.5,0.2,0.8l-2.6,4.4
						c-0.2,0.3-0.5,0.4-0.8,0.2l0,0C135.6,320.6,135.5,320.3,135.6,320z"/>
					<path class="st18" d="M132.8,318.3l2.6-4.4c0.2-0.3,0.5-0.4,0.8-0.2l0,0c0.3,0.2,0.4,0.5,0.2,0.8l-2.6,4.4
						c-0.2,0.3-0.5,0.4-0.8,0.2l0,0C132.7,319,132.6,318.6,132.8,318.3z"/>
				</g>
				<g>
					<path class="st16" d="M224.4,336.9L224.4,336.9c-0.7-0.6-0.7-1.7-0.1-2.4l6-6.5c1.4-1.5,1.3-3.9-0.2-5.3l-6.6-6.1
						c-1.5-1.4-3.9-1.3-5.3,0.2l-10.2,10.9l-1.9,2.1l-2.5,2.7c-1.6,1.8-1.5,4.5,0.2,6.2l14.9,13.8c1.7,1.6,4.4,1.6,6.1-0.1
						C229.1,348,228.9,341,224.4,336.9z"/>
					<path class="st17" d="M210.1,325.7l-1.9,2.1l-1.9,2.1l-2.5,2.7c-1.2,1.3-1.5,3.2-0.8,4.8c1.6,0.6,3.4,0.2,4.6-1
						C210.4,333.3,211.2,329.3,210.1,325.7z"/>
					<path class="st17" d="M224.9,352.4c4.1-4.3,3.9-11.2-0.3-15.3l-3,3.2l-1.9,2.1l-2.5,2.7c-1.6,1.8-1.5,4.5,0.2,6.2l1.5,1.4
						C220.6,354.1,223.3,354.1,224.9,352.4z"/>
					<path class="st18" d="M219.9,355l-18.4-17.1c-0.8-0.7-0.8-2-0.1-2.7l0,0c0.7-0.8,2-0.8,2.7-0.1l18.4,17.1
						c0.8,0.7,0.8,2,0.1,2.7l0,0C221.9,355.6,220.7,355.7,219.9,355z"/>
					<path class="st18" d="M228.1,330.4l-11.9-11.1c-0.3-0.3-0.3-0.7,0-1l0,0c0.3-0.3,0.7-0.3,1,0l11.9,11.1c0.3,0.3,0.3,0.7,0,1
						l0,0C228.8,330.7,228.4,330.7,228.1,330.4z"/>
					<path class="st18" d="M209.2,331.9L209.2,331.9c-0.4-0.3-0.4-0.9,0-1.3l8.9-9.6c0.3-0.4,0.9-0.4,1.3,0l0,0
						c0.4,0.3,0.4,0.9,0,1.3l-8.9,9.6C210.2,332.2,209.6,332.2,209.2,331.9z"/>
					
						<ellipse transform="matrix(0.6814 -0.7319 0.7319 0.6814 -175.8568 259.0282)" class="st18" cx="209.6" cy="331.5" rx="2.8" ry="2.8"/>
					
						<ellipse transform="matrix(0.6814 -0.7319 0.7319 0.6814 -175.8579 259.0342)" class="st14" cx="209.6" cy="331.5" rx="1.8" ry="1.8"/>
					<path class="st18" d="M226.1,332.8l-3.7-3.5c-0.2-0.2-0.3-0.6,0-0.9l0,0c0.2-0.2,0.6-0.3,0.9,0l3.7,3.5c0.2,0.2,0.3,0.6,0,0.9
						l0,0C226.7,333,226.3,333,226.1,332.8z"/>
					<path class="st18" d="M223.8,335.2l-3.7-3.5c-0.2-0.2-0.3-0.6,0-0.9l0,0c0.2-0.2,0.6-0.3,0.9,0l3.7,3.5c0.2,0.2,0.3,0.6,0,0.9
						l0,0C224.4,335.4,224,335.5,223.8,335.2z"/>
				</g>
				<g>
					<path class="st16" d="M203.7,232.1l-23.1,1.9c-2,0.2-3.5,1.9-3.3,3.9l0.1,1.1c0.2,2,1.9,3.5,3.9,3.3l23.1-1.9
						c2-0.2,3.5-1.9,3.3-3.9l-0.1-1.1C207.4,233.4,205.7,231.9,203.7,232.1z"/>
					<path class="st20" d="M204.8,232.2c0.1,0.2,0.1,0.5,0.1,0.7l0.1,1.1c0.2,2-1.3,3.7-3.3,3.9l-23.1,1.9c-0.4,0-0.8,0-1.1-0.1
						c0.5,1.6,2,2.7,3.8,2.6l23.1-1.9c2-0.2,3.5-1.9,3.3-3.9l-0.1-1.1C207.5,233.8,206.3,232.5,204.8,232.2z"/>
					<path class="st21" d="M203.6,230.6l-23.1,1.9c-2.8,0.2-4.9,2.7-4.7,5.5l0.1,1.1c0.2,2.8,2.7,4.9,5.5,4.7l23.1-1.9
						c2.8-0.2,4.9-2.7,4.7-5.5l-0.1-1.1C208.8,232.5,206.4,230.4,203.6,230.6z M207.7,236.5c0.2,2-1.3,3.7-3.3,3.9l-23.1,1.9
						c-2,0.2-3.7-1.3-3.9-3.3l-0.1-1.1c-0.2-2,1.3-3.7,3.3-3.9l23.1-1.9c2-0.2,3.7,1.3,3.9,3.3L207.7,236.5z"/>
				</g>
				<path class="st16" d="M190.3,248.3c0.1,1.6-1.1,3.1-2.7,3.2c-1.6,0.1-3.1-1.1-3.2-2.7c-0.1-1.6,1.1-3.1,2.7-3.2
					C188.7,245.4,190.1,246.7,190.3,248.3z M200.7,244.5c-1.6,0.1-2.8,1.6-2.7,3.2c0.1,1.6,1.6,2.8,3.2,2.7c1.6-0.1,2.8-1.6,2.7-3.2
					C203.8,245.5,202.3,244.3,200.7,244.5z M187.9,256.2c-1.6,0.1-2.8,1.6-2.7,3.2c0.1,1.6,1.6,2.8,3.2,2.7c1.6-0.1,2.8-1.6,2.7-3.2
					C191,257.3,189.6,256.1,187.9,256.2z M201.6,255.1c-1.6,0.1-2.8,1.6-2.7,3.2c0.1,1.6,1.6,2.8,3.2,2.7c1.6-0.1,2.8-1.6,2.7-3.2
					C204.6,256.2,203.2,255,201.6,255.1z"/>
				<g>
					<path class="st20" d="M189.2,256.4c0.2,0.4,0.4,0.8,0.4,1.3c0.1,1.6-1.1,3.1-2.7,3.2c-0.5,0-0.9,0-1.3-0.2
						c0.6,1,1.6,1.6,2.8,1.5c1.6-0.1,2.8-1.6,2.7-3.2C191,257.8,190.3,256.8,189.2,256.4z"/>
					<path class="st20" d="M202.4,245.9c0.1,1.6-1.1,3.1-2.7,3.2c-0.5,0-0.9,0-1.3-0.2c0.6,1,1.6,1.6,2.8,1.5
						c1.6-0.1,2.8-1.6,2.7-3.2c-0.1-1.2-0.9-2.1-1.9-2.5C202.2,245,202.4,245.4,202.4,245.9z"/>
					<path class="st20" d="M188.4,245.8c0.2,0.4,0.4,0.8,0.4,1.3c0.1,1.6-1.1,3.1-2.7,3.2c-0.5,0-0.9,0-1.3-0.2
						c0.6,1,1.6,1.6,2.8,1.5c1.6-0.1,2.8-1.6,2.7-3.2C190.2,247.1,189.4,246.2,188.4,245.8z"/>
					<path class="st20" d="M202.9,255.3c0.2,0.4,0.4,0.8,0.4,1.3c0.1,1.6-1.1,3.1-2.7,3.2c-0.5,0-0.9,0-1.3-0.2
						c0.6,1,1.6,1.6,2.8,1.5c1.6-0.1,2.8-1.6,2.7-3.2C204.7,256.7,203.9,255.7,202.9,255.3z"/>
				</g>
				<path class="st23" d="M178.7,238.3c0,0-0.5-2.8,2.7-3.2c3.1-0.5,17.6-1.4,17.6-1.4"/>
				<g class="st24">
					
						<image style="overflow:visible;" width="226" height="259" xlink:href="C559F80AB3E20939.png"  transform="matrix(1 0 0 1 76 133)">
					</image>
				</g>
			</g>
			<g>
				<g>
					<path class="st14" d="M266.9,242.3c-2.1-2.6-4.3-5.3-6.3-7.4c-1.9-2-1.8-5.3,0.2-7.2c2-1.9,5.3-1.8,7.2,0.2
						c2.2,2.3,4.5,5.1,6.7,7.9c2.1,2.5,5.1,6.2,6.5,7.5c2.7-0.3,9.8-3.7,15.7-7.6l0,0c2.3-1.5,5.5-0.9,7,1.4c1.6,2.3,0.9,5.5-1.4,7
						c-0.2,0.1-3.8,2.5-8.3,4.8c-9,4.7-13.1,4.7-15.3,4.3c-0.3-0.1-0.6-0.1-0.9-0.2C275.1,252.2,272.4,248.9,266.9,242.3z
						 M281.8,243.7L281.8,243.7L281.8,243.7z"/>
				</g>
				<path class="st25" d="M260.9,229.3c1.9,2.1,4.1,4.8,6.3,7.4c5.4,6.6,8.2,9.9,11.2,10.8c0.3,0.1,0.6,0.2,0.9,0.2
					c2.3,0.4,6.3,0.4,15.3-4.3c4.4-2.3,8.1-4.7,8.3-4.8c0.5-0.3,0.9-0.8,1.3-1.2c1.4,2.3,0.7,5.3-1.5,6.9c-0.2,0.1-3.8,2.5-8.3,4.8
					c-9,4.7-13.1,4.7-15.3,4.3c-0.3-0.1-0.6-0.1-0.9-0.2c-3-1-5.8-4.2-11.2-10.8c-2.1-2.6-4.3-5.3-6.3-7.4c-1.7-1.8-1.8-4.6-0.4-6.5
					C260.5,228.7,260.7,229,260.9,229.3z"/>
				<g>
					<path class="st26" d="M256,221.4l1.7,10.5c0.4,2.6,2.9,4.3,5.5,3.9l2.5-0.4c2.6-0.4,4.3-2.9,3.9-5.5l-1.7-10.5
						c-0.4-2.6-2.9-4.3-5.5-3.9l-2.5,0.4C257.3,216.4,255.6,218.9,256,221.4z"/>
					<path class="st27" d="M267,223.4l-0.8,7.3c-0.1,1.3,0.8,2.5,2.1,2.6l0,0c1.3,0.1,2.5-0.8,2.6-2.1l0.8-7.3
						c0.1-1.3-0.8-2.5-2.1-2.6l0,0C268.3,221.1,267.2,222.1,267,223.4z"/>
				</g>
				<g>
					<path class="st14" d="M300.1,319.8c1.8,1.3,4.4,1.2,6.2-0.3c2.1-1.8,2.4-5,0.6-7.2c-4-4.8-6.2-12.4-5.3-18.6
						c0.3-2.3,1.2-5.4,3.6-7c4.2-2.8,19.5,0.1,28.9,3.3c2.7,0.9,5.5-0.5,6.4-3.2c0.9-2.7-0.5-5.5-3.2-6.4c-0.3-0.1-6.6-2.2-14.1-3.7
						c-11.2-2.1-18.9-1.6-23.7,1.6c-4.3,2.9-7.2,7.9-8,14c-1.3,9.1,1.7,19.5,7.6,26.6C299.4,319.3,299.7,319.6,300.1,319.8z"/>
				</g>
				<path class="st25" d="M302.6,317c2.1-1.8,2.4-5,0.6-7.2c-4-4.8-6.2-12.4-5.3-18.6c0.3-2.3,1.2-5.4,3.6-7
					c4.2-2.8,19.5,0.1,28.9,3.3c2.7,0.9,5.5-0.5,6.4-3.2c0.5-1.5,0.3-3-0.4-4.2c0.6,0.2,0.9,0.3,0.9,0.3c2.7,0.9,4.1,3.8,3.2,6.4
					c-0.9,2.7-3.8,4.1-6.4,3.2c-9.4-3.2-24.7-6.1-28.9-3.3c-2.4,1.6-3.3,4.7-3.6,7c-0.9,6.2,1.3,13.8,5.3,18.6
					c1.8,2.1,1.5,5.4-0.6,7.2c-1.8,1.5-4.3,1.6-6.2,0.3c-0.4-0.3-0.7-0.6-1-0.9c-0.2-0.3-0.4-0.5-0.6-0.8
					C299.9,318.4,301.4,318,302.6,317z"/>
				<path class="st14" d="M345.7,289.4l14.8-6.4c7.5-3.3,11-12.1,7.8-19.6l-0.1-0.1c-1.1-2.5-4-3.6-6.4-2.5l-33.3,14.4
					c-2.5,1.1-3.6,4-2.5,6.4l0.1,0.1C329.4,289.2,338.2,292.7,345.7,289.4z"/>
				<path class="st25" d="M326.5,276.9L326.5,276.9c3.3,7.5,12.1,11.1,19.6,7.8l14.8-6.4c4.5-1.9,7.5-5.8,8.6-10.2
					c0.5,6.2-2.9,12.4-8.9,15l-14.8,6.4c-7.5,3.3-16.4-0.2-19.6-7.8l-0.1-0.1C325.4,279.9,325.6,278.2,326.5,276.9z"/>
				<path class="st28" d="M311.2,247.7l-3,0.4c-2.5,0.4-4.9-1.4-5.3-3.9l-1.1-7.4c-0.4-2.5,1.4-4.9,3.9-5.3l3-0.4
					c2.5-0.4,4.9,1.4,5.3,3.9l1.1,7.4C315.4,245,313.7,247.4,311.2,247.7z"/>
				<path class="st27" d="M307.9,248.2l-3,0.4c-2.5,0.4-4.9-1.4-5.3-3.9l-1.1-7.4c-0.4-2.5,1.4-4.9,3.9-5.3l3-0.4
					c2.5-0.4,4.9,1.4,5.3,3.9l1.1,7.4C312.2,245.5,310.5,247.9,307.9,248.2z"/>
				<path class="st26" d="M305.1,248.7l-3,0.4c-2.5,0.4-4.9-1.4-5.3-3.9l-1.1-7.4c-0.4-2.5,1.4-4.9,3.9-5.3l3-0.4
					c2.5-0.4,4.9,1.4,5.3,3.9l1.1,7.4C309.4,245.9,307.6,248.3,305.1,248.7z"/>
				<path class="st14" d="M335.8,278.3l22.8-9.8c6.5-2.8,9.5-10.4,6.7-16.9l-11.6-26.8c-2.8-6.5-10.4-9.5-16.9-6.7l-22.8,9.8
					c-6.5,2.8-9.5,10.4-6.7,16.9l11.6,26.8C321.8,278.1,329.3,281.1,335.8,278.3z"/>
				<path class="st25" d="M313.1,228.4c0.2,0.8,0.4,1.6,0.8,2.4l11.6,26.8c2.8,6.5,10.4,9.5,16.9,6.7l22.8-9.8
					c0.3-0.1,0.6-0.3,0.9-0.5c1.2,5.8-1.8,12-7.5,14.4l-22.8,9.8c-6.5,2.8-14.1-0.2-16.9-6.7l-11.6-26.8
					C304.7,238.7,307.3,231.5,313.1,228.4z"/>
				
					<ellipse transform="matrix(8.129638e-02 -0.9967 0.9967 8.129638e-02 73.9969 473.6173)" class="st29" cx="293.9" cy="196.7" rx="10.6" ry="6"/>
				
					<ellipse transform="matrix(8.129394e-02 -0.9967 0.9967 8.129394e-02 94.2004 497.4739)" class="st14" cx="317" cy="197.6" rx="26.5" ry="26.5"/>
				<path class="st25" d="M305.4,173.8c-3.5,4.1-5.8,9.3-6.3,15.1c-1.2,14.6,9.7,27.4,24.3,28.6c4.9,0.4,9.6-0.6,13.7-2.6
					c-5.3,6.2-13.5,9.9-22.2,9.1c-14.6-1.2-25.4-14-24.3-28.6C291.3,185.8,297.2,177.8,305.4,173.8z"/>
				<path class="st30" d="M322.5,207.9c4.6,0.4,8.7-3.1,9.1-7.7l0.4-4.9c0.4-4.6-3.1-8.7-7.7-9.1l-23.6-1.9
					c-4.6-0.4-8.7,3.1-9.1,7.7l-0.4,4.9c-0.4,4.6,3.1,8.7,7.7,9.1L322.5,207.9z"/>
				<path class="st31" d="M298,184.5c-0.5,1-0.8,2.1-0.9,3.2l-0.4,4.9c-0.4,4.6,3.1,8.7,7.7,9.1l23.6,1.9c0.9,0.1,1.9,0,2.7-0.2
					c-1.5,2.9-4.7,4.8-8.2,4.5l-23.6-1.9c-4.6-0.4-8.1-4.5-7.7-9.1l0.4-4.9C291.9,188.3,294.5,185.4,298,184.5z"/>
				<path class="st27" d="M300.6,185.8l23.6,1.9c3.8,0.3,6.7,3.7,6.4,7.5l-0.4,4.9c-0.3,3.8-3.7,6.7-7.5,6.4l-23.6-1.9
					c-3.8-0.3-6.7-3.7-6.4-7.5l0.4-4.9C293.4,188.3,296.7,185.5,300.6,185.8 M300.8,182.8c-5.4-0.4-10.2,3.6-10.7,9.1l-0.4,4.9
					c-0.4,5.4,3.6,10.2,9.1,10.7l23.6,1.9c5.4,0.4,10.2-3.6,10.7-9.1l0.4-4.9c0.4-5.4-3.6-10.2-9.1-10.7L300.8,182.8L300.8,182.8z"
					/>
				<polygon class="st14" points="305.4,192.1 305.5,190.9 306.7,191 308,191.1 309.2,191.2 309.1,192.4 310.4,192.5 310.3,193.8 
					311.5,193.9 311.6,192.6 312.9,192.7 313,191.5 314.2,191.6 315.5,191.7 316.7,191.8 316.6,193 317.9,193.1 317.8,194.4 
					317.7,195.6 317.6,196.9 316.3,196.8 316.2,198 315,197.9 314.9,199.2 313.6,199.1 313.5,200.3 312.3,200.2 312.2,201.5 
					310.9,201.4 310.8,202.6 309.6,202.5 309.7,201.3 308.4,201.2 308.5,199.9 307.3,199.8 307.4,198.6 306.1,198.5 306.2,197.2 
					305,197.1 305.1,195.9 303.8,195.8 303.9,194.5 304,193.3 304.1,192 				"/>
				<path class="st28" d="M306,224.1l32.7-8.2c1.1-0.3,1.8-1.4,1.5-2.5l0,0c-0.3-1.1-1.4-1.8-2.5-1.5l-32.7,8.2
					c-1.1,0.3-1.8,1.4-1.5,2.5l0,0C303.7,223.7,304.9,224.3,306,224.1z"/>
				<path class="st27" d="M306.9,228.1l32.7-8.2c1.1-0.3,1.8-1.4,1.5-2.5l0,0c-0.3-1.1-1.4-1.8-2.5-1.5l-32.7,8.2
					c-1.1,0.3-1.8,1.4-1.5,2.5l0,0C304.7,227.7,305.9,228.3,306.9,228.1z"/>
				<path class="st26" d="M307.9,232l32.7-8.2c1.1-0.3,1.8-1.4,1.5-2.5l0,0c-0.3-1.1-1.4-1.8-2.5-1.5l-32.7,8.2
					c-1.1,0.3-1.8,1.4-1.5,2.5l0,0C305.7,231.6,306.8,232.3,307.9,232z"/>
				<path class="st22" d="M328.2,194.2c0,0,1.4-3.9-4-4.3c-5.4-0.4-13.4-1.1-13.4-1.1"/>
				<path class="st28" d="M348,231.4l3,0.2c2.5,0.1,4.7-1.8,4.9-4.4l0.4-7.4c0.1-2.5-1.8-4.7-4.4-4.9l-3-0.2
					c-2.5-0.1-4.7,1.8-4.9,4.4l-0.4,7.4C343.5,229,345.5,231.2,348,231.4z"/>
				<path class="st27" d="M351.3,231.6l3,0.2c2.5,0.1,4.7-1.8,4.9-4.4l0.4-7.4c0.1-2.5-1.8-4.7-4.4-4.9l-3-0.2
					c-2.5-0.1-4.7,1.8-4.9,4.4l-0.4,7.4C346.7,229.2,348.7,231.4,351.3,231.6z"/>
				<path class="st26" d="M353.9,231.8l3,0.2c2.5,0.2,4.8-1.7,5-4.2l0.6-7.4c0.2-2.5-1.7-4.8-4.2-5l-3-0.2c-2.5-0.2-4.8,1.7-5,4.2
					l-0.6,7.4C349.4,229.4,351.4,231.6,353.9,231.8z"/>
				<g>
					<path class="st14" d="M383.4,198.2c0.6,0.4,1,1,1.4,1.7c5.8,11.4,6.4,21.4,1.4,26.9c-2.8,3.1-8,4.3-16.3,3.8
						c-5.2-0.3-9.8-1.2-10-1.2c-2.8-0.5-4.6-3.2-4-5.9c0.5-2.8,3.2-4.6,5.9-4l0,0c7,1.3,15,1.6,17,0.5c1.2-1.7,1.1-7.3-3-15.3
						c-1.3-2.5-0.3-5.6,2.2-6.8C379.7,196.7,381.9,197,383.4,198.2z M378.8,219.8L378.8,219.8L378.8,219.8z"/>
				</g>
				<path class="st25" d="M375.7,204.5c4.1,8,4.2,13.7,3,15.3c-2,1.1-10,0.8-17-0.5c-2.8-0.5-5.4,1.3-5.9,4
					c-0.5,2.4,0.9,4.8,3.1,5.7c-0.8-1.1-1.1-2.5-0.9-3.9c0.5-2.8,3.2-4.6,5.9-4c7,1.3,15,1.6,17,0.5c1.2-1.7,1.1-7.3-3-15.3
					c-1.3-2.5-0.3-5.6,2.2-6.8c1.4-0.7,2.9-0.7,4.2-0.2c-0.3-0.4-0.6-0.7-1-1c-1.5-1.2-3.6-1.5-5.5-0.5
					C375.4,199,374.4,202,375.7,204.5z"/>
				<g>
					<path class="st14" d="M338.4,314.3c0,0,0.1,0.1,0.1,0.1c6.1,6.9,16,11.4,25.1,11.5c2.8,0,5.1-2.2,5.1-5c0-2.8-2.2-5.1-5-5.1
						c-6.2,0-13.5-3.3-17.6-8c0,0,0-0.1-0.1-0.1c-1.5-1.8-3.2-4.4-2.9-7.2c0.6-5,12.7-14.8,21.3-19.8c2.4-1.4,3.2-4.6,1.8-7
						c-1.4-2.4-4.6-3.2-7-1.8c-0.2,0.1-6,3.6-12,8.4c-8.9,7.1-13.5,13.3-14.2,19C332.4,304.3,334.3,309.7,338.4,314.3z"/>
				</g>
				<path class="st25" d="M366.1,273.5C366.1,273.6,366.1,273.6,366.1,273.5c1.5,2.5,0.7,5.6-1.7,7c-8.5,5.1-20.7,14.8-21.3,19.8
					c-0.3,2.8,1.4,5.5,2.9,7.2c0,0,0,0.1,0.1,0.1c3.9,4.4,10.6,7.6,16.6,8c1.4,0.5,2.8,0.9,4.2,1.2c1.1,0.9,1.8,2.4,1.8,3.9
					c0,2.8-2.3,5.1-5.1,5c-1.1,0-2.1-0.1-3.2-0.2c-5.7-1.9-11-5.3-14.9-9.7c0,0-0.1-0.1-0.1-0.1c-4.1-4.6-6-10-5.4-15.1
					c0.7-5.7,5.3-11.9,14.2-19C359.8,277.4,365.1,274.2,366.1,273.5z"/>
				<g>
					<path class="st27" d="M372.7,193.3l3.7,6.3c0.7,1.1,0.3,2.6-0.8,3.3l0,0c-1.1,0.7-2.6,0.3-3.3-0.8l-3.7-6.3
						c-0.7-1.1-0.3-2.6,0.8-3.3l0,0C370.6,191.8,372,192.2,372.7,193.3z"/>
					<path class="st26" d="M381.9,187l2.7,10.2c0.7,2.5-0.8,5.1-3.4,5.8l-2.5,0.7c-2.5,0.7-5.1-0.8-5.8-3.4l-2.7-10.2
						c-0.7-2.5,0.8-5.1,3.4-5.8l2.5-0.7C378.7,183,381.3,184.5,381.9,187z"/>
				</g>
				<g>
					<path class="st28" d="M371.2,332.6L371.2,332.6c0.2-0.9-0.3-1.8-1.2-2.1l-8.6-2.1c-2-0.5-3.2-2.5-2.7-4.5l2.2-8.7
						c0.5-2,2.5-3.2,4.5-2.7l14.5,3.6l2.7,0.7l3.6,0.9c2.3,0.6,3.8,3,3.2,5.3l-4.9,19.7c-0.6,2.3-2.9,3.7-5.2,3.2
						C373.4,344.4,369.7,338.4,371.2,332.6z"/>
					<path class="st27" d="M377,315.3l2.7,0.7l2.7,0.7l3.6,0.9c1.8,0.4,3,1.9,3.3,3.6c-1,1.3-2.7,2.1-4.4,1.6
						C381,321.9,378.1,318.9,377,315.3z"/>
					<path class="st27" d="M379.2,345.8c-5.8-1.4-9.4-7.2-8.1-13l4.2,1l2.7,0.7l3.6,0.9c2.3,0.6,3.8,3,3.2,5.3l-0.5,1.9
						C383.8,344.9,381.5,346.3,379.2,345.8z"/>
					<path class="st26" d="M384.9,345.2l6.1-24.4c0.3-1-0.4-2.1-1.4-2.3l0,0c-1-0.3-2.1,0.4-2.3,1.4l-6.1,24.4
						c-0.3,1,0.4,2.1,1.4,2.3l0,0C383.6,346.8,384.6,346.2,384.9,345.2z"/>
					<path class="st26" d="M364.6,329.1l3.9-15.8c0.1-0.4-0.1-0.8-0.5-0.9l0,0c-0.4-0.1-0.8,0.1-0.9,0.5l-3.9,15.8
						c-0.1,0.4,0.1,0.8,0.5,0.9l0,0C364.1,329.7,364.5,329.5,364.6,329.1z"/>
					<path class="st26" d="M381.2,320L381.2,320c0.1-0.5-0.2-1-0.7-1.1l-12.7-3.2c-0.5-0.1-1,0.2-1.1,0.7l0,0
						c-0.1,0.5,0.2,1,0.7,1.1l12.7,3.2C380.6,320.8,381.1,320.5,381.2,320z"/>
					
						<ellipse transform="matrix(0.2411 -0.9705 0.9705 0.2411 -21.5766 612.2386)" class="st26" cx="380.7" cy="319.9" rx="2.8" ry="2.8"/>
					
						<ellipse transform="matrix(0.2411 -0.9705 0.9705 0.2411 -21.5762 612.2391)" class="st14" cx="380.7" cy="319.9" rx="1.8" ry="1.8"/>
					<path class="st26" d="M367.6,330l1.2-4.9c0.1-0.3-0.1-0.7-0.4-0.7l0,0c-0.3-0.1-0.7,0.1-0.7,0.4l-1.2,4.9
						c-0.1,0.3,0.1,0.7,0.4,0.7l0,0C367.2,330.5,367.5,330.3,367.6,330z"/>
					<path class="st26" d="M370.8,330.8l1.2-4.9c0.1-0.3-0.1-0.7-0.4-0.7l0,0c-0.3-0.1-0.7,0.1-0.7,0.4l-1.2,4.9
						c-0.1,0.3,0.1,0.7,0.4,0.7l0,0C370.4,331.3,370.8,331.1,370.8,330.8z"/>
				</g>
				<g>
					<path class="st28" d="M293.4,324.9L293.4,324.9c0.9-0.2,1.5-1.1,1.3-2l-2-8.6c-0.5-2,0.8-4,2.8-4.5l8.8-2c2-0.5,4,0.8,4.5,2.8
						l3.4,14.5l0.6,2.7l0.8,3.6c0.5,2.3-0.9,4.7-3.3,5.2l-19.8,4.6c-2.3,0.5-4.6-0.8-5.2-3.1C283.9,332.2,287.5,326.2,293.4,324.9z"
						/>
					<path class="st27" d="M311.4,322.2l0.6,2.8l0.6,2.7l0.8,3.6c0.4,1.8-0.3,3.5-1.7,4.5c-1.6-0.3-3.1-1.5-3.5-3.2
						C307.4,328.8,308.7,324.8,311.4,322.2z"/>
					<path class="st27" d="M285.3,338.1c-1.4-5.8,2.2-11.7,7.9-13.1l1,4.2l0.6,2.7l0.8,3.6c0.5,2.3-0.9,4.7-3.3,5.2l-1.9,0.5
						C288.2,341.7,285.8,340.3,285.3,338.1z"/>
					<path class="st26" d="M288.4,342.8l24.5-5.7c1-0.2,1.7-1.3,1.4-2.3l0,0c-0.2-1-1.3-1.7-2.3-1.4l-24.5,5.7
						c-1,0.2-1.7,1.3-1.4,2.3l0,0C286.3,342.4,287.3,343,288.4,342.8z"/>
					<path class="st26" d="M293.5,317.4l15.8-3.7c0.4-0.1,0.6-0.5,0.5-0.9l0,0c-0.1-0.4-0.5-0.6-0.9-0.5l-15.8,3.7
						c-0.4,0.1-0.6,0.5-0.5,0.9l0,0C292.7,317.3,293.1,317.5,293.5,317.4z"/>
					<path class="st26" d="M309.1,328.1L309.1,328.1c0.5-0.1,0.8-0.6,0.7-1.1l-3-12.7c-0.1-0.5-0.6-0.8-1.1-0.7l0,0
						c-0.5,0.1-0.8,0.6-0.7,1.1l3,12.7C308.1,327.9,308.6,328.2,309.1,328.1z"/>
					
						<ellipse transform="matrix(0.9739 -0.2269 0.2269 0.9739 -66.2653 78.6471)" class="st26" cx="309" cy="327.6" rx="2.8" ry="2.8"/>
					
						<ellipse transform="matrix(0.9739 -0.2269 0.2269 0.9739 -66.2683 78.6515)" class="st14" cx="309" cy="327.6" rx="1.8" ry="1.8"/>
					<path class="st26" d="M294.1,320.5l4.9-1.2c0.3-0.1,0.5-0.4,0.5-0.7l0,0c-0.1-0.3-0.4-0.5-0.7-0.5l-4.9,1.2
						c-0.3,0.1-0.5,0.4-0.5,0.7l0,0C293.4,320.4,293.7,320.6,294.1,320.5z"/>
					<path class="st26" d="M294.8,323.7l4.9-1.2c0.3-0.1,0.5-0.4,0.5-0.7l0,0c-0.1-0.3-0.4-0.5-0.7-0.5l-4.9,1.2
						c-0.3,0.1-0.5,0.4-0.5,0.7l0,0C294.2,323.6,294.5,323.8,294.8,323.7z"/>
				</g>
				<g>
					<path class="st30" d="M315.3,239.8l21.2-9.2c1.8-0.8,4,0.1,4.8,1.9l0.4,1c0.8,1.8-0.1,4-1.9,4.8l-21.2,9.2
						c-1.8,0.8-4-0.1-4.8-1.9l-0.4-1C312.6,242.8,313.5,240.6,315.3,239.8z"/>
					<path class="st31" d="M314.3,240.4c0,0.2,0.1,0.5,0.2,0.7l0.4,1c0.8,1.8,2.9,2.7,4.8,1.9l21.2-9.2c0.4-0.2,0.7-0.4,1-0.6
						c0.3,1.6-0.5,3.4-2.1,4.1l-21.2,9.2c-1.8,0.8-4-0.1-4.8-1.9l-0.4-1C312.8,243.1,313.2,241.5,314.3,240.4z"/>
					<path class="st27" d="M312.1,245.2l0.4,1c1.1,2.6,4.1,3.8,6.7,2.6l21.2-9.2c2.6-1.1,3.8-4.1,2.6-6.7l-0.4-1
						c-1.1-2.6-4.1-3.8-6.7-2.6l-21.2,9.2C312.2,239.6,311,242.6,312.1,245.2z M313.4,244.6c-0.8-1.8,0.1-4,1.9-4.8l21.2-9.2
						c1.8-0.8,4,0.1,4.8,1.9l0.4,1c0.8,1.8-0.1,4-1.9,4.8l-21.2,9.2c-1.8,0.8-4-0.1-4.8-1.9L313.4,244.6z"/>
				</g>
				<path class="st28" d="M336.3,243.9c1.5-0.6,3.2,0,3.9,1.5c0.6,1.5,0,3.2-1.5,3.9c-1.5,0.6-3.2,0-3.9-1.5
					C334.1,246.3,334.8,244.6,336.3,243.9z M322.2,253.2c0.6,1.5,2.4,2.2,3.9,1.5c1.5-0.6,2.2-2.4,1.5-3.9c-0.6-1.5-2.4-2.2-3.9-1.5
					C322.3,250,321.6,251.7,322.2,253.2z M339,257.6c0.6,1.5,2.4,2.2,3.9,1.5c1.5-0.6,2.2-2.4,1.5-3.9c-0.6-1.5-2.4-2.2-3.9-1.5
					C339.1,254.4,338.4,256.1,339,257.6z M326.5,263.1c0.6,1.5,2.4,2.2,3.9,1.5c1.5-0.6,2.2-2.4,1.5-3.9c-0.6-1.5-2.4-2.2-3.9-1.5
					C326.5,259.8,325.8,261.6,326.5,263.1z"/>
				<g>
					<path class="st27" d="M339.5,254.5c0,0.4,0.1,0.9,0.2,1.3c0.6,1.5,2.4,2.2,3.9,1.5c0.4-0.2,0.8-0.5,1.1-0.8
						c0,1.1-0.7,2.1-1.8,2.6c-1.5,0.6-3.2,0-3.9-1.5C338.5,256.6,338.8,255.4,339.5,254.5z"/>
					<path class="st27" d="M322.9,251.4c0.6,1.5,2.4,2.2,3.9,1.5c0.4-0.2,0.8-0.5,1.1-0.8c0,1.1-0.7,2.1-1.8,2.6
						c-1.5,0.6-3.2,0-3.9-1.5c-0.5-1.1-0.2-2.3,0.5-3.1C322.7,250.6,322.8,251,322.9,251.4z"/>
					<path class="st27" d="M335.3,244.7c0,0.4,0.1,0.9,0.2,1.3c0.6,1.5,2.4,2.2,3.9,1.5c0.4-0.2,0.8-0.5,1.1-0.8
						c0,1.1-0.7,2.1-1.8,2.6c-1.5,0.6-3.2,0-3.9-1.5C334.3,246.7,334.5,245.5,335.3,244.7z"/>
					<path class="st27" d="M327,259.9c0,0.4,0.1,0.9,0.2,1.3c0.6,1.5,2.4,2.2,3.9,1.5c0.4-0.2,0.8-0.5,1.1-0.8
						c0,1.1-0.7,2.1-1.8,2.6c-1.5,0.6-3.2,0-3.9-1.5C326,262,326.2,260.8,327,259.9z"/>
				</g>
				<path class="st23" d="M340.3,233.5c0,0-0.9-2.7-3.9-1.6c-3,1.1-16.2,7-16.2,7"/>
				
					<ellipse transform="matrix(8.129627e-02 -0.9967 0.9967 8.129627e-02 111.0028 525.4655)" class="st29" cx="340.5" cy="202.5" rx="10.6" ry="6"/>
				<path class="st30" d="M339.8,192.2c-1.9,1.7-3.4,5-3.7,8.9c-0.5,5.8,1.8,10.8,5.1,11c0.5,0,1.1,0,1.6-0.2c-1,0.9-2,1.3-3.2,1.2
					c-3.3-0.3-5.6-5.2-5.1-11C335,197.2,337.2,193.2,339.8,192.2z"/>
				
					<ellipse transform="matrix(8.129545e-02 -0.9967 0.9967 8.129545e-02 112.1837 526.9766)" class="st27" cx="341.9" cy="202.6" rx="7.6" ry="4.6"/>
				<g class="st24">
					
						<image style="overflow:visible;" width="275" height="248" xlink:href="C559F80AB3E20945.png"  transform="matrix(1 0 0 1 153 135)">
					</image>
				</g>
			</g>
		</g>
		<g>
			<path class="st14" d="M448.4,375.7c0-4.3-3.4-7.7-7.7-7.7c4.3,0,7.7-3.4,7.7-7.7c0,4.3,3.4,7.7,7.7,7.7
				C451.8,368,448.4,371.4,448.4,375.7z"/>
			<path class="st14" d="M456.1,191.1c0-4.3-3.4-7.7-7.7-7.7c4.3,0,7.7-3.4,7.7-7.7c0,4.3,3.4,7.7,7.7,7.7
				C459.5,183.4,456.1,186.8,456.1,191.1z"/>
			<path class="st14" d="M175.1,400.6c0-4.3-3.4-7.7-7.7-7.7c4.3,0,7.7-3.4,7.7-7.7c0,4.3,3.4,7.7,7.7,7.7
				C178.5,392.9,175.1,396.3,175.1,400.6z"/>
			<path class="st14" d="M153.9,38.5c0-2.1-1.7-3.8-3.8-3.8c2.1,0,3.8-1.7,3.8-3.8c0,2.1,1.7,3.8,3.8,3.8
				C155.6,34.7,153.9,36.4,153.9,38.5z"/>
			<path class="st14" d="M210.3,100c0-2.1-1.7-3.8-3.8-3.8c2.1,0,3.8-1.7,3.8-3.8c0,2.1,1.7,3.8,3.8,3.8
				C212,96.2,210.3,97.9,210.3,100z"/>
			<path class="st14" d="M108.1,171.7c0-2.1-1.7-3.8-3.8-3.8c2.1,0,3.8-1.7,3.8-3.8c0,2.1,1.7,3.8,3.8,3.8
				C109.8,167.8,108.1,169.6,108.1,171.7z"/>
			<path class="st14" d="M49.1,95.7c0-2.1-1.7-3.8-3.8-3.8c2.1,0,3.8-1.7,3.8-3.8c0,2.1,1.7,3.8,3.8,3.8
				C50.8,91.9,49.1,93.6,49.1,95.7z"/>
			<path class="st14" d="M409.9,303.9c0-2.1-1.7-3.8-3.8-3.8c2.1,0,3.8-1.7,3.8-3.8c0,2.1,1.7,3.8,3.8,3.8
				C411.6,300.1,409.9,301.8,409.9,303.9z"/>
			<path class="st14" d="M476.5,404.4c0-2.1-1.7-3.8-3.8-3.8c2.1,0,3.8-1.7,3.8-3.8c0,2.1,1.7,3.8,3.8,3.8
				C478.2,400.6,476.5,402.3,476.5,404.4z"/>
			<path class="st14" d="M379.5,95.7c0-2.1-1.7-3.8-3.8-3.8c2.1,0,3.8-1.7,3.8-3.8c0,2.1,1.7,3.8,3.8,3.8
				C381.2,91.9,379.5,93.6,379.5,95.7z"/>
			<path class="st14" d="M170.2,473.5c0-2.1-1.7-3.8-3.8-3.8c2.1,0,3.8-1.7,3.8-3.8c0,2.1,1.7,3.8,3.8,3.8
				C171.9,469.6,170.2,471.4,170.2,473.5z"/>
			<path class="st14" d="M45.2,214.3c0-2.1-1.7-3.8-3.8-3.8c2.1,0,3.8-1.7,3.8-3.8c0,2.1,1.7,3.8,3.8,3.8
				C46.9,210.4,45.2,212.1,45.2,214.3z"/>
			<path class="st14" d="M322.9,440.5c0-2.1-1.7-3.8-3.8-3.8c2.1,0,3.8-1.7,3.8-3.8c0,2.1,1.7,3.8,3.8,3.8
				C324.6,436.6,322.9,438.4,322.9,440.5z"/>
			<path class="st14" d="M68.1,368.9c0-2.1-1.7-3.8-3.8-3.8c2.1,0,3.8-1.7,3.8-3.8c0,2.1,1.7,3.8,3.8,3.8
				C69.8,365,68.1,366.8,68.1,368.9z"/>
			<path class="st14" d="M456.1,465.8c0-2.1-1.7-3.8-3.8-3.8c2.1,0,3.8-1.7,3.8-3.8c0,2.1,1.7,3.8,3.8,3.8
				C457.8,461.9,456.1,463.7,456.1,465.8z"/>
			<path class="st14" d="M272.6,407c0-2.1-1.7-3.8-3.8-3.8c2.1,0,3.8-1.7,3.8-3.8c0,2.1,1.7,3.8,3.8,3.8
				C274.4,403.1,272.6,404.9,272.6,407z"/>
			<path class="st14" d="M49.1,457.4c0-2.1-1.7-3.8-3.8-3.8c2.1,0,3.8-1.7,3.8-3.8c0,2.1,1.7,3.8,3.8,3.8
				C50.8,453.5,49.1,455.3,49.1,457.4z"/>
			<path class="st14" d="M353.6,39.4c0-2.1-1.7-3.8-3.8-3.8c2.1,0,3.8-1.7,3.8-3.8c0,2.1,1.7,3.8,3.8,3.8
				C355.4,35.5,353.6,37.2,353.6,39.4z"/>
			<path class="st14" d="M448.5,66.5c0-2-1.7-3.7-3.7-3.7c2,0,3.7-1.7,3.7-3.7c0,2,1.7,3.7,3.7,3.7
				C450.2,62.8,448.5,64.4,448.5,66.5z"/>
			<path class="st14" d="M472.6,300.1c0-2.1-1.7-3.8-3.8-3.8c2.1,0,3.8-1.7,3.8-3.8c0,2.1,1.7,3.8,3.8,3.8
				C474.4,296.2,472.6,298,472.6,300.1z"/>
			<path class="st14" d="M113.1,305.6c0-2.1-1.7-3.8-3.8-3.8c2.1,0,3.8-1.7,3.8-3.8c0,2.1,1.7,3.8,3.8,3.8
				C114.8,301.8,113.1,303.5,113.1,305.6z"/>
		</g>
		<g>
			<g>
				
					<linearGradient id="SVGID_8_" gradientUnits="userSpaceOnUse" x1="187.4316" y1="138.1268" x2="212.9111" y2="72.9342" gradientTransform="matrix(0.7071 0.7071 -0.7071 0.7071 10.9451 -157.5316)">
					<stop  offset="0.2027" style="stop-color:#4B1E61;stop-opacity:0"/>
					<stop  offset="0.5081" style="stop-color:#4B1E61"/>
					<stop  offset="0.7892" style="stop-color:#E52976"/>
					<stop  offset="0.9865" style="stop-color:#FFFFFF"/>
				</linearGradient>
				<path class="st32" d="M141.1,124.4L12.1-4.6c-0.7-0.7-0.7-1.9,0-2.6l0,0c0.7-0.7,1.9-0.7,2.6,0l128.9,128.9
					c0.7,0.7,0.7,1.9,0,2.6l0,0C142.9,125.1,141.8,125.1,141.1,124.4z"/>
			</g>
			<g>
				
					<linearGradient id="SVGID_9_" gradientUnits="userSpaceOnUse" x1="463.2064" y1="-83.0943" x2="477.5193" y2="-119.7157" gradientTransform="matrix(0.7071 0.7071 -0.7071 0.7071 10.9451 -157.5316)">
					<stop  offset="0.2027" style="stop-color:#4B1E61;stop-opacity:0"/>
					<stop  offset="0.5081" style="stop-color:#4B1E61"/>
					<stop  offset="0.7892" style="stop-color:#E52976"/>
					<stop  offset="0.9865" style="stop-color:#FFFFFF"/>
				</linearGradient>
				<path class="st33" d="M450.7,140.3l-72.4-72.4c-0.4-0.4-0.4-1,0-1.4l0,0c0.4-0.4,1-0.4,1.4,0l72.4,72.4c0.4,0.4,0.4,1,0,1.4l0,0
					C451.8,140.7,451.1,140.7,450.7,140.3z"/>
			</g>
			<g>
				
					<linearGradient id="SVGID_10_" gradientUnits="userSpaceOnUse" x1="702.4702" y1="167.4176" x2="716.7831" y2="130.7962" gradientTransform="matrix(0.7071 0.7071 -0.7071 0.7071 10.9451 -157.5316)">
					<stop  offset="0.2027" style="stop-color:#4B1E61;stop-opacity:0"/>
					<stop  offset="0.5081" style="stop-color:#4B1E61"/>
					<stop  offset="0.7892" style="stop-color:#E52976"/>
					<stop  offset="0.9865" style="stop-color:#FFFFFF"/>
				</linearGradient>
				<path class="st34" d="M442.8,486.6l-72.4-72.4c-0.4-0.4-0.4-1,0-1.4l0,0c0.4-0.4,1-0.4,1.4,0l72.4,72.4c0.4,0.4,0.4,1,0,1.4l0,0
					C443.8,487,443.2,487,442.8,486.6z"/>
			</g>
			<g>
				
					<linearGradient id="SVGID_11_" gradientUnits="userSpaceOnUse" x1="336.9966" y1="327.2746" x2="351.3095" y2="290.6532" gradientTransform="matrix(0.7071 0.7071 -0.7071 0.7071 10.9451 -157.5316)">
					<stop  offset="0.2027" style="stop-color:#4B1E61;stop-opacity:0"/>
					<stop  offset="0.5081" style="stop-color:#4B1E61"/>
					<stop  offset="0.7892" style="stop-color:#E52976"/>
					<stop  offset="0.9865" style="stop-color:#FFFFFF"/>
				</linearGradient>
				<path class="st35" d="M71.3,341.2l-72.4-72.4c-0.4-0.4-0.4-1,0-1.4l0,0c0.4-0.4,1-0.4,1.4,0l72.4,72.4c0.4,0.4,0.4,1,0,1.4l0,0
					C72.4,341.6,71.7,341.6,71.3,341.2z"/>
			</g>
		</g>
	</g>
	<polygon class="st36" points="305.4,192.1 305.5,190.9 306.7,191 308,191.1 309.2,191.2 309.1,192.4 310.4,192.5 310.3,193.8 
		311.5,193.9 311.6,192.6 312.9,192.7 313,191.5 314.2,191.6 315.5,191.7 316.7,191.8 316.6,193 317.9,193.1 317.8,194.4 
		317.7,195.6 317.6,196.9 316.3,196.8 316.2,198 315,197.9 314.9,199.2 313.6,199.1 313.5,200.3 312.3,200.2 312.2,201.5 
		310.9,201.4 310.8,202.6 309.6,202.5 309.7,201.3 308.4,201.2 308.5,199.9 307.3,199.8 307.4,198.6 306.1,198.5 306.2,197.2 
		305,197.1 305.1,195.9 303.8,195.8 303.9,194.5 304,193.3 304.1,192 	"/>
	<polygon class="st37" points="202.4,192.1 202.5,190.8 201.3,190.7 200,190.6 198.8,190.5 198.7,191.8 197.4,191.7 197.3,192.9 
		196.1,192.8 196.2,191.6 194.9,191.5 195,190.2 193.8,190.1 192.5,190 191.3,189.9 191.2,191.2 189.9,191.1 189.8,192.3 
		189.7,193.6 189.6,194.8 190.8,194.9 190.7,196.2 192,196.3 191.9,197.5 193.1,197.6 193,198.9 194.3,199 194.2,200.2 195.4,200.3 
		195.3,201.6 196.6,201.7 196.7,200.4 197.9,200.5 198,199.3 199.3,199.4 199.4,198.1 200.6,198.2 200.7,197 202,197.1 202.1,195.8 
		203.3,195.9 203.4,194.7 203.5,193.5 203.6,192.2 	"/>
</g>
<g id="DESIGNED_BY_FREEPIK">
</g>
</svg>
